<svg xmlns="http://www.w3.org/2000/svg">
    <symbol id="logo" viewBox="0 0 53 38">
        <path d="M0 8.56477C0 6.10363 0.8 4.13472 2.4 2.46114C4.1 0.88601 6.1 0 8.6 0C11.2 0 13.2 0.689119 14.8 2.1658L13.6 3.93782C13 3.34715 12.2 2.95337 11.3 2.65803C10.4 2.36269 9.6 2.1658 8.7 2.1658C6.8 2.1658 5.3 2.75648 4.1 3.93782C3 5.21762 2.5 6.6943 2.5 8.56477C2.5 10.4352 
        3.1 12.0104 4.2 13.2902C5.4 14.5699 6.9 15.1606 8.8 15.1606C9.7 15.1606 10.7 14.9637 11.6 14.5699C12.5 14.1762 13.3 13.6839 14 12.9948L15.3 14.6684C13.5 16.4404 11.3 17.3264 8.7 17.3264C6.1 17.3264 4 16.5389 2.4 14.8653C0.8 13.0933 0 11.0259 0 8.56477Z 
        M18.3 17.0311V0.295334H20.6V7.58031H29.4V0.295334H31.8V16.9326H29.4V9.64767H20.6V16.9326H18.3V17.0311Z
        M35.2 8.56477C35.2 6.20207 36 4.13472 37.7 2.46114C39.3 0.787565 41.4 0 43.9 0C46.4 0 48.5 0.787565 50.1 2.46114C51.8 4.13472 52.6 6.10363 52.6 8.56477C52.6 11.0259 51.8 13.0933 50.1 14.7668C48.4 16.4404 46.4 17.3264 43.9 17.3264C41.4 17.3264 39.3 
        16.4404 37.7 14.7668C36 13.0933 35.2 11.0259 35.2 8.56477ZM37.7 8.56477C37.7 10.4352 38.3 12.0104 39.5 13.2902C40.7 14.5699 42.2 15.1606 44 15.1606C45.8 15.1606 47.3 14.5699 48.5 13.2902C49.7 12.0104 50.3 10.4352 50.3 8.56477C50.3 6.79275 49.7 5.21762 
        48.5 4.03627C47.3 2.85492 45.8 2.1658 44 2.1658C42.2 2.1658 40.7 2.75648 39.5 4.03627C38.2 5.21762 37.7 6.6943 37.7 8.56477Z
        M0 29.2383C0 26.7772 0.8 24.8083 2.4 23.1347C4.1 21.5596 6.1 20.6736 8.6 20.6736C11.2 20.6736 13.2 21.3627 14.8 22.8394L13.6 24.6114C13 24.0207 12.2 23.6269 11.3 23.3316C10.4 23.0363 9.5 22.8394 8.7 22.8394C6.8 22.8394 5.3 23.43 4.1 24.6114C3 25.7927 
        2.4 27.3679 2.4 29.1399C2.4 31.0104 3 32.5855 4.1 33.8653C5.3 35.1451 6.8 35.7357 8.7 35.7357C9.6 35.7357 10.6 35.5389 11.5 35.1451C12.4 34.7513 13.2 34.2591 13.9 33.5699L15.2 35.2435C13.4 37.0155 11.2 37.9015 8.6 37.9015C6 37.9015 3.9 37.114 2.3 35.4404C0.8 33.7668 0 31.6995 0 29.2383Z
        M16.8 29.2383C16.8 26.7772 17.6 24.8083 19.2 23.1347C20.8 21.5596 22.9 20.6736 25.4 20.6736C28 20.6736 30 21.3627 31.6 22.8394L30.4 24.6114C29.8 24.0207 29 23.6269 28.1 23.3316C27.2 23.0363 26.3 22.8394 25.5 22.8394C23.6 22.8394 22.1 23.43 20.9 24.6114C19.8 25.7927 19.2 27.3679 19.2 
        29.1399C19.2 31.0104 19.8 32.5855 20.9 33.8653C22.1 35.1451 23.6 35.7357 25.5 35.7357C26.4 35.7357 27.4 35.5389 28.3 35.1451C29.2 34.7513 30 34.2591 30.7 33.5699L32 35.2435C30.2 37.0155 28 37.9015 25.4 37.9015C22.8 37.9015 20.7 37.114 19.1 35.4404C17.6 33.7668 16.8 31.6995 16.8 29.2383Z
        M33.6 29.2383C33.6 26.8756 34.4 24.8083 36.1 23.1347C37.7 21.4611 39.8 20.6736 42.3 20.6736C44.8 20.6736 46.9 21.4611 48.5 23.1347C50.1 24.8083 51 26.7772 51 29.2383C51 31.6995 50.2 33.7668 48.5 35.4404C46.8 37.114 44.8 38 42.3 38C39.8 38 37.7 37.114 36.1 35.4404C34.4 33.7668 33.6 
        31.6995 33.6 29.2383ZM36 29.2383C36 31.1088 36.6 32.6839 37.8 33.9637C39 35.2435 40.5 35.8342 42.3 35.8342C44.1 35.8342 45.6 35.2435 46.8 33.9637C48 32.6839 48.6 31.1088 48.6 29.2383C48.6 27.4663 48 25.8912 46.8 24.7098C45.6 23.5285 44.1 22.8394 42.3 22.8394C40.5 22.8394 39 23.43 37.8 
        24.7098C36.6 25.8912 36 27.3679 36 29.2383Z"/>
    </symbol>

    <symbol id="leaf" viewBox="0 0 39 37">
        <path d="M5.68662 22.4709C5.68662 22.9568 5.92954 23.4426 5.92954 23.9284C5.92954 25.8718 6.17246 29.0297 6.17246 29.0297H7.38704C7.38704 29.0297 7.38704 23.9284 6.65829 21.2563C5.92954 18.3413 5.68662 12.9971 7.38704 9.11043L6.17246 8.6246C6.17246 8.6246 4.71495 11.5396 
        4.71495 16.1551C4.71495 19.0701 4.95787 20.2847 5.20078 21.4992C4.22911 20.7705 1.55701 18.3413 1.79993 13.24C2.28577 7.41001 7.38704 2.06581 7.38704 2.06581C7.38704 2.06581 16.375 10.5679 8.35872 20.0417L9.33039 20.7705C9.33039 20.7705 12.9742 16.6409 12.9742 12.0254C12.9742 
        7.41001 11.0308 3.52332 7.38704 0.365387C7.38704 0.365387 1.07118 6.43834 0.585343 13.7259C0.342425 20.5276 5.4437 22.9568 5.4437 22.9568L5.68662 22.4709Z
        M18.3183 16.1551C9.33038 18.8272 9.81622 27.5722 10.0591 29.5156C6.9012 32.6735 5.4437 35.5885 5.4437 35.5885L6.41537 36.0743C15.6462 20.7705 29.9784 23.6855 29.9784 23.6855V22.4709C21.2334 21.4993 15.1604 
        24.9001 11.0308 28.301C10.7879 25.143 12.2454 17.6126 21.4763 16.8838C32.1647 16.6409 37.2659 22.9568 37.2659 22.9568C31.6788 31.9447 25.363 33.1593 21.4763 33.6452C17.3467 34.3739 12.2454 31.4589 12.2454 31.4589L11.7596 
        32.4306C11.7596 32.4306 16.1321 35.3456 21.7192 34.8597C33.8651 33.4022 38.4805 22.7138 38.4805 22.7138C37.2659 20.2847 28.278 13.7259 18.3183 16.1551Z"/>
    </symbol>

    <symbol id="car" viewBox="0 0 40 32">
        <path d="M 6.84767 12.6328 L 9.01168 10.9016 H 9.22808 C 9.87729 10.9016 10.3101 10.4688 10.3101 9.81963 C 10.3101 9.38683 10.0937 9.17043 9.87729 8.95403 V 4.40961 H 8.79528 V 8.95403 C 8.36248 9.17043 8.14608 9.38683 8.14608 9.81963 V 10.036 L 5.98207 11.7672 L 6.84767 12.6328Z
                M 39.7406 24.3185 V 17.3936 C 39.7406 15.2296 38.875 14.364 38.875 14.364 C 38.875 14.364 36.711 11.5508 35.4126 9.81961 C 34.1142 8.08841 32.383 8.08841 32.383 8.08841 H 25.0254 V 7.0064 C 25.0254 5.49159 23.9434 4.40959 22.4285 4.40959 H 16.1529 C 14.6381 2.24558 12.0413 
                0.730774 9.22809 0.730774 C 4.46727 0.730774 0.788452 4.62599 0.788452 9.38681 C 0.788452 11.3344 1.43765 13.0656 2.51966 14.5804 V 24.1021 C 2.51966 25.6169 3.60166 26.6989 5.11647 26.6989 H 6.19848 V 26.9153 C 6.19848 29.5121 8.36249 31.6761 10.9593 31.6761 C 13.5561 31.6761 
                15.7201 29.5121 15.7201 26.9153 C 15.7201 26.6989 15.7201 26.6989 15.7201 26.6989 H 22.2121 H 22.4285 C 23.0777 26.6989 24.5926 26.6989 26.5402 26.6989 V 26.9153 C 26.5402 29.5121 28.7042 31.6761 31.301 31.6761 C 33.8978 31.6761 36.0618 29.5121 36.0618 26.9153 C 36.0618 26.6989 
                36.0618 26.6989 36.0618 26.6989 C 36.2782 26.6989 36.4946 26.6989 36.4946 26.6989 C 40.1734 26.9153 39.7406 24.3185 39.7406 24.3185 Z M 38.6586 16.7444 C 38.6586 16.7444 38.6586 16.9608 38.6586 17.3936 H 30.219 C 29.7862 17.3936 29.3534 16.9608 29.3534 16.528 V 13.0656 C 29.3534 
                12.6328 29.7862 12.2 30.219 12.2 H 35.8454 C 36.4946 12.8492 37.1438 13.7148 37.5766 14.364 C 38.6586 15.6624 38.6586 16.7444 38.6586 16.7444 Z M 9.22809 2.02918 C 13.3397 2.02918 16.8021 5.27519 16.8021 9.60321 C 16.8021 13.9312 13.3397 16.9608 9.22809 16.9608 C 5.11647 16.9608 
                1.87046 13.4984 1.87046 9.38681 C 1.87046 5.27519 5.11647 2.02918 9.22809 2.02918 Z M 10.7429 30.5941 C 8.79529 30.5941 7.28048 29.0793 7.28048 27.1317 C 7.28048 25.1841 8.79529 23.6693 10.7429 23.6693 C 12.6905 23.6693 14.2053 25.1841 14.2053 27.1317 C 14.2053 29.0793 12.6905 30.5941 
                10.7429 30.5941 Z M 15.0709 25.6169 C 14.4217 23.8857 12.6905 22.3709 10.7429 22.3709 C 8.79529 22.3709 7.06408 23.6693 6.41488 25.6169 H 4.90007 C 4.25087 25.6169 3.60166 24.9677 3.60166 24.3185 V 15.6624 C 5.11647 16.9608 7.06408 17.8264 9.22809 17.8264 C 13.9889 17.8264 17.6677 13.9312 
                17.6677 9.38681 C 17.6677 8.08841 17.2349 6.79 16.8021 5.708 H 22.4285 C 23.0777 5.708 23.7269 6.3572 23.7269 7.0064 V 24.3185 C 23.7269 24.9677 23.0777 25.6169 22.4285 25.6169 H 15.0709 Z M 31.0846 30.5941 C 29.137 30.5941 27.6222 29.0793 27.6222 27.1317 C 27.6222 25.1841 29.137 23.6693 
                31.0846 23.6693 C 33.0322 23.6693 34.547 25.1841 34.547 27.1317 C 34.547 29.0793 33.0322 30.5941 31.0846 30.5941 Z M 36.4946 25.8333 H 35.629 C 34.9798 23.8857 33.2486 22.5873 31.301 22.5873 C 29.137 22.5873 27.4058 23.8857 26.973 25.8333 H 24.809 C 25.2418 25.4005 25.4582 24.9677 25.4582 
                24.3185 V 8.95401 C 25.4582 8.95401 30.219 8.95401 32.1666 8.95401 C 34.1142 8.95401 34.9798 10.2524 34.9798 10.2524 C 34.9798 10.2524 34.7634 10.6852 35.1962 11.118 H 30.219 C 29.137 11.118 28.4878 11.9836 28.4878 12.8492 V 16.3116 C 28.4878 17.3936 29.3534 18.0428 30.219 18.0428 H 38.875 
                C 38.875 19.7741 38.875 22.3709 38.875 23.6693 C 38.6586 26.0497 36.4946 25.8333 36.4946 25.8333 Z"/>
    </symbol>

    <symbol id="cm" viewBox="0 0 37 37">
        <path d="M10.5679 7.16711C10.5679 7.65294 11.5396 8.13878 12.9971 8.13878C14.4546 8.13878 15.4263 7.65294 15.4263 7.16711C15.4263 6.68127 14.4546 6.19543 12.9971 6.19543C11.7825 6.19543 10.5679 6.43835 10.5679 7.16711Z
        M36.8031 16.1551C36.8031 13.7259 34.8597 11.7825 32.4306 11.7825H31.4589H10.0821C10.0821 11.7825 4.25207 12.0254 1.57998 7.41001C1.82289 4.00916 4.49499 1.57998 7.89584 1.57998H17.6126C21.2563 1.57998 23.9284 4.49499 
        23.9284 7.89584V9.11043H25.143V8.13876C25.143 3.76624 21.7422 0.365387 17.3696 0.365387H8.13876C3.76624 0.365387 0.365387 3.76624 0.365387 8.13876V11.2967V11.7825V19.5559C0.365387 23.9284 3.76624 27.3293 8.13876 
        27.3293H9.83919V26.1147H7.89584C4.25207 26.1147 1.57998 23.1997 1.57998 19.7988V11.7825V11.2967V9.59627C2.30873 10.5679 4.73791 12.9971 9.83919 12.9971C17.1267 12.9971 31.216 12.9971 31.216 12.9971H32.4306C34.131 
        12.9971 35.3456 14.2117 35.3456 15.9121V17.3696V17.8555C35.3456 19.5559 34.131 20.7705 32.4306 20.7705H32.1876H16.8838C14.4546 20.7705 12.5113 22.7138 12.5113 25.143V31.7018C12.5113 34.131 14.4546 36.0743 16.8838 
        36.0743H32.4306C34.8597 36.0743 36.8031 34.131 36.8031 31.7018V25.143C36.8031 25.143 36.8031 19.313 36.8031 17.6126C36.8031 17.6126 36.8031 17.6126 36.8031 17.3696V16.1551ZM35.3456 32.1876C35.3456 33.8881 34.131 35.1027 
        32.4306 35.1027H16.6409C14.9405 35.1027 13.7259 33.8881 13.7259 32.1876V25.143C13.7259 23.4426 14.9405 22.228 16.6409 22.228H21.2563V26.3576H22.4709V22.228H28.058H30.2443V26.3576H31.4589V22.228H32.4306C33.6451 22.228 34.8597 
        21.7422 35.5885 21.0134V32.1876H35.3456Z"/>
    </symbol>

    <symbol id="phone" viewBox="0 0 14 15">
        <path d="M13.7455 13.0923C13.4909 13.5935 12.9818 13.8441 12.4727 14.0947C11.8364 14.4706 11.3273 14.5959 10.6909 14.5959C9.8 14.5959 8.90909 14.22 8.14545 13.9694C7.50909 13.7188 7 13.4682 6.36364 13.2176C4.58182 
        12.09 2.54545 10.0853 1.52727 8.45643C1.14545 7.82996 0.890909 7.32878 0.636364 6.70231C0.381818 5.82525 0 5.07349 0 4.07113C0 3.44466 0.127273 2.81819 0.509091 2.19172C0.763636 1.69054 1.01818 1.18936 1.52727 
        0.938771C1.90909 0.938771 2.54545 0.813477 2.92727 0.813477C3.05455 0.813477 3.05455 0.813477 3.18182 0.813477C3.43636 0.938771 3.56364 1.31465 3.69091 1.56524C3.94545 2.19172 4.32727 2.69289 4.58182 3.31936C4.83636 
        3.56995 5.09091 3.82054 5.09091 4.07113C5.09091 4.6976 3.30909 5.57466 3.30909 6.07584C3.30909 6.32643 3.56364 6.70231 3.69091 6.9529C4.70909 8.70702 5.98182 9.95997 7.76364 10.9623C8.01818 11.0876 8.4 11.3382 8.65455 
        11.3382C9.16364 11.3382 10.0545 9.58408 10.6909 9.58408C10.9455 9.58408 11.2 9.83467 11.4545 10.0853C11.9636 10.4611 12.6 10.7117 13.1091 11.0876C13.3636 11.2129 13.7455 11.3382 13.8727 11.5888C13.8727 11.7141 13.8727 
        11.7141 13.8727 11.8394C14 12.09 13.8727 12.7164 13.7455 13.0923Z"/>
    </symbol>

    <symbol id="person" viewBox="0 0 65 69">
        <path d="M60.03 19.665C60.72 18.975 61.41 18.285 61.755 17.595C64.17 14.49 63.825 13.11 61.41 11.04C58.995 8.97 55.2 12.075 55.2 12.075C55.2 12.075 54.855 12.42 54.51 12.765C50.715 9.315 45.885 6.555 40.365 5.175C38.295 
        2.07 35.19 0 31.74 0C27.945 0 24.84 2.415 22.77 5.52C18.285 6.9 14.145 9.315 10.695 12.42C10.005 12.075 8.625 10.695 6.9 10.35C4.485 10.005 2.07 11.73 1.725 14.145C1.725 15.525 3.105 17.595 4.83 19.665C1.725 24.495 0 30.015 
        0 36.225C0 53.82 14.49 68.31 32.43 68.31C38.64 68.31 44.85 66.585 49.68 63.48L48.645 61.065C44.16 49.68 45.195 42.435 45.54 38.985C46.575 35.19 50.37 30.015 52.44 27.255C53.82 25.53 55.89 23.805 57.96 21.735C60.72 25.875 62.1 
        30.705 62.1 36.225C62.1 44.16 58.65 51.405 53.475 56.925L55.545 58.65C61.41 52.785 64.86 44.85 64.86 36.225C64.86 30.015 63.135 24.495 60.03 19.665ZM31.74 2.76C36.225 2.76 39.675 6.9 39.675 12.075C39.675 17.25 36.225 21.39 31.74 
        21.39C27.255 21.39 23.805 17.595 23.805 12.075C23.805 6.555 27.255 2.76 31.74 2.76ZM31.74 24.15C37.605 24.15 42.435 18.63 42.435 12.075C42.435 10.695 42.09 9.66 41.745 8.28C45.885 9.66 49.335 11.73 52.44 14.49C49.68 16.905 45.54 20.01 
        43.47 21.39C40.365 23.805 35.19 26.22 31.05 26.22C26.91 26.22 24.84 24.495 21.735 23.115C18.975 21.735 14.49 16.56 12.42 14.49C15.18 12.075 18.285 10.35 21.39 8.97C21.39 10.005 21.045 11.04 21.045 12.075C21.045 18.975 25.875 24.15 31.74 
        24.15ZM2.76 36.225C2.76 31.05 4.14 26.22 6.555 21.735C7.245 22.425 7.59 22.77 7.59 22.77C7.59 22.77 16.215 32.775 17.94 35.19C19.665 37.605 17.595 39.33 16.215 45.54C15.18 50.37 15.18 56.925 15.18 60.03C7.59 54.51 2.76 45.885 2.76 36.225ZM56.235 
        19.665C54.855 21.045 50.025 25.185 45.885 31.74C41.745 38.295 42.435 43.47 42.78 47.265C43.125 51.06 44.16 54.51 44.505 55.89C44.85 56.925 46.23 60.72 46.575 61.755C42.435 63.825 37.605 65.205 32.775 65.205C27.255 65.205 22.425 63.825 17.94 61.41C17.94 
        49.68 18.63 47.955 18.975 46.23C18.975 44.505 20.01 41.055 21.045 38.295C21.735 35.88 20.7 33.81 19.665 32.775C18.63 31.74 8.625 19.665 6.9 17.25C4.83 14.835 4.485 13.8 6.21 13.11C7.935 12.075 12.42 17.595 14.49 20.01C16.215 22.425 24.15 28.98 31.395 
        28.635C38.64 28.29 43.815 24.495 45.885 23.115C47.61 21.735 56.58 14.49 57.96 13.455C59.34 12.42 61.065 13.455 60.72 14.49C60.375 15.525 57.615 18.285 56.235 19.665Z"/>
    </symbol>

    <symbol id="smile" viewBox="0 0 64 64">
        <path d="M32 0C14.4314 0 0 14.4314 0 32C0 49.5686 14.4314 64 32 64C49.5686 64 64 49.5686 64 32C64 14.4314 49.5686 0 32 0ZM32 61.4902C15.6863 61.4902 2.5098 48.3137 2.5098 32C2.5098 15.6863 15.6863 2.5098 32 2.5098C48.3137 2.5098 61.4902 15.6863 61.4902 32C61.4902 48.3137 48.3137 61.4902 32 61.4902Z
        M32 48.6275C21.0196 48.6275 14.4314 38.902 14.4314 38.902L12.2353 40.4706C21.0196 51.7647 32 51.451 32 51.451C32 51.451 42.9804 52.0785 51.7647 40.4706L49.5686 38.902C49.5686 38.902 42.9804 48.6275 32 48.6275Z
        M21.3333 35.451C28.8627 32 30.1176 27.6078 30.1176 25.4118C30.1176 22.902 28.549 20.0784 25.7255 20.0784C22.5882 20.0784 21.3333 21.6471 21.3333 21.6471C21.3333 21.6471 20.0784 20.0784 16.9412 20.0784C14.1176 
        20.0784 12.549 23.2157 12.549 25.4118C12.549 27.6078 13.8039 32 21.3333 35.451ZM21.3333 24.7843C22.902 22.2745 27.2941 21.9608 27.6078 25.098C27.6078 29.4902 21.3333 32.6275 21.3333 32.6275C21.3333 32.6275 
        15.0588 29.4902 15.0588 25.098C15.3725 21.9608 19.7647 22.2745 21.3333 24.7843Z
        M42.6667 35.451C50.1961 32 51.451 27.6078 51.451 25.7255C51.451 23.2157 49.8824 20.3922 47.0588 20.3922C43.9216 20.3922 42.6667 21.9608 42.6667 21.9608C42.6667 21.9608 41.4118 20.3922 38.2745 20.3922C35.451 
        20.3922 33.8824 23.5294 33.8824 25.7255C33.8824 27.6078 35.1373 32 42.6667 35.451ZM42.6667 24.7843C44.2353 22.2745 48.6274 21.9608 48.9412 25.098C48.9412 29.4902 42.6667 32.6274 42.6667 32.6274C42.6667 32.6274 
        36.3922 29.4902 36.3922 25.098C36.7059 21.9608 41.098 22.2745 42.6667 24.7843Z"/>
    </symbol>

    <symbol id="hand" viewBox="0 0 64 54">
        <path d="M49.9372 8.44973C43.9103 8.44973 36.1614 12.7547 36.4484 21.6515C36.4484 21.6515 24.6816 17.9206 21.2377 30.2614C21.2377 30.2614 19.2287 25.9565 16.6457 23.9475C13.7758 21.9385 10.3318 16.7726 10.0448 
        14.1896C10.3318 12.7547 10.6188 12.7547 11.1928 12.4677C11.4798 12.4677 11.4798 14.7636 14.0628 15.0506C16.3587 14.7636 16.9327 14.1896 17.7937 13.0417L20.3767 10.1717C20.3767 10.1717 22.9596 6.72776 20.6637 
        5.00578C18.6547 2.99681 14.9238 -0.734128 10.3318 0.126858C7.74888 0.700849 5.73991 2.70982 5.73991 2.70982L2.29596 5.86677C2.29596 5.86677 0 8.16273 0 12.7547C0 16.7726 0.860987 23.3735 0.860987 23.3735C0.860987 
        23.3735 1.72197 28.5394 2.00897 30.2614C2.29596 31.9834 4.59193 42.0282 10.0448 47.4811C13.4888 51.4991 15.4978 53.221 17.2197 53.508C20.0897 53.508 21.5247 51.7861 23.8206 51.7861C26.1166 51.7861 28.4126 53.508 
        33.2915 53.508C38.1704 53.508 49.0762 50.6381 53.6682 36.5753C57.9731 34.8533 64 31.6964 64 22.2255C64 12.7547 55.6771 8.44973 49.9372 8.44973ZM51.9462 34.8533C48.7892 47.4811 38.7444 50.9251 33.8655 51.4991C29.2735 
        51.4991 26.6906 49.7771 23.2466 49.7771C21.2377 49.7771 18.3677 51.4991 17.5067 51.4991C16.6457 51.4991 14.3498 49.4901 11.4798 46.3331C8.60987 43.1762 7.46188 40.3062 6.3139 38.0103C5.16592 35.7143 3.15695 26.5304 
        3.15695 26.5304C3.15695 26.5304 2.29596 17.3466 2.29596 13.3287C2.29596 9.59771 4.01794 7.30175 4.01794 7.30175C4.01794 7.30175 6.3139 5.29278 8.60987 3.28381C11.1928 1.27484 14.3498 2.70982 14.3498 2.70982C14.3498 
        2.70982 17.5067 4.71879 18.6547 5.86677C20.0897 7.01475 18.6547 8.16273 18.6547 8.16273C18.6547 8.16273 15.4978 12.1807 14.3498 12.4677C12.9148 12.7547 12.6278 9.31072 12.6278 9.31072C11.1928 9.88471 8.89686 10.4587 
        8.03587 13.0417C7.17489 16.1986 11.7668 22.7995 15.2108 25.9565C18.3677 29.1134 20.3767 34.2793 20.3767 34.2793L22.9596 33.4183C22.9596 33.4183 22.6726 27.3914 27.8386 24.2345C33.5785 21.0775 38.7444 25.3825 38.7444 
        25.3825C37.0224 11.0327 49.6502 10.7457 50.5112 10.7457C51.3722 10.7457 61.417 11.6067 62.278 21.6515C61.704 33.1313 51.9462 34.8533 51.9462 34.8533Z"/>
    </symbol>

    <symbol id="footer-phone" viewBox="0 0 12 12">
        <path d="M11.9741 9.29781C11.9401 9.19554 11.7242 9.04488 11.3264 8.84619C11.2186 8.78357 11.0651 8.69846 10.8664 8.59049C10.6675 8.48252 10.487 8.38303 10.3252 8.2921C10.163 8.20121 10.0111 8.11314 9.86919 8.02804C9.8465 
        8.01099 9.77548 7.96135 9.65617 7.87879C9.53674 7.79646 9.43602 7.73535 9.35348 7.6955C9.27112 7.65589 9.19011 7.63595 9.11055 7.63595C8.99694 7.63595 8.85503 7.71696 8.68464 7.87879C8.51425 8.04082 8.35795 8.21682 8.21598 
        8.40733C8.07398 8.59774 7.92339 8.77375 7.76446 8.93569C7.60529 9.09769 7.47452 9.17861 7.37237 9.17861C7.32108 9.17861 7.25714 9.16432 7.18052 9.13611C7.10392 9.10772 7.04565 9.08339 7.00565 9.06378C6.96601 9.04375 6.89798 
        9.00411 6.80132 8.94425C6.70448 8.88458 6.65063 8.8519 6.63929 8.84619C5.86093 8.41428 5.19337 7.91995 4.63651 7.36332C4.07982 6.80636 3.58543 6.13887 3.15363 5.36041C3.14796 5.34904 3.11521 5.29504 3.0556 5.1985C2.9959 5.10188 
        2.95611 5.03379 2.93623 4.99391C2.91635 4.95417 2.8922 4.89591 2.86384 4.81922C2.83548 4.74253 2.82124 4.67865 2.82124 4.62746C2.82124 4.52525 2.90223 4.3945 3.06417 4.23539C3.22608 4.07638 3.40226 3.92575 3.59253 3.78381C3.78295 
        3.64187 3.95895 3.48557 4.12092 3.31518C4.28283 3.1447 4.36379 3.00273 4.36379 2.88912C4.36379 2.80963 4.34391 2.72858 4.30418 2.64622C4.26441 2.56368 4.20334 2.46297 4.12092 2.34359C4.03847 2.22428 3.98877 2.15332 3.9717 2.13049C3.88656 
        1.98855 3.79859 1.83658 3.70758 1.67464C3.61656 1.51272 3.51722 1.33225 3.40922 1.13341C3.30131 0.934661 3.21614 0.781198 3.15357 0.673257C2.95483 0.275613 2.80429 0.0596122 2.70199 0.0256419C2.6622 0.00859706 2.6025 0 2.52303 0C2.36954 
        0 2.1693 0.0283583 1.92216 0.0852542C1.67494 0.14206 1.4804 0.201643 1.33834 0.26424C1.05425 0.383494 0.753144 0.730063 0.434934 1.30383C0.145171 1.8378 0.000305176 2.36631 0.000305176 2.88897C0.000305176 3.04225 0.0102455 3.19139 
        0.0301262 3.3364C0.0500069 3.48127 0.0855294 3.64465 0.136724 3.8265C0.187828 4.00829 0.229052 4.14333 0.260217 4.23127C0.291411 4.31928 0.34965 4.47692 0.434904 4.70426C0.520039 4.93155 0.571233 5.07068 0.588278 5.12182C0.787115 
        5.67866 1.02291 6.17576 1.29559 6.61329C1.74425 7.34051 2.35652 8.09207 3.13205 8.86766C3.90761 9.64318 4.65901 10.2554 5.3863 10.7043C5.82376 10.9769 6.32105 11.2127 6.8778 11.4117C6.92896 11.4286 7.0681 11.4797 7.29529 11.5651C7.52258 
        11.6503 7.68028 11.7086 7.76828 11.7398C7.85631 11.7711 7.99139 11.8124 8.17303 11.8636C8.35506 11.9147 8.51828 11.9503 8.66315 11.9703C8.80811 11.9899 8.95727 12 9.11059 12C9.63321 12 10.1618 11.8551 10.6958 11.5653C11.2695 11.2473 11.616 
        10.9461 11.7353 10.6618C11.7981 10.5199 11.8575 10.3253 11.9143 10.0781C11.9713 9.83095 11.9996 9.63074 11.9996 9.47727C11.9998 9.39748 11.9912 9.33793 11.9741 9.29781Z"/>
    </symbol>

    <symbol id="vk" viewBox="0 0 20 12">
        <path d="M19.891 10.6049C19.891 10.5504 19.8365 10.4959 19.8365 10.4959C19.5095 9.89646 18.8011 9.07902 17.8202 8.20708C17.3842 7.77111 17.1117 7.49864 17.0027 7.33515C16.7847 7.06267 16.7302 6.79019 16.8392 6.51771C16.9482 
        6.29973 17.2207 5.86376 17.7657 5.15531C18.0381 4.77384 18.2561 4.50136 18.4196 4.28338C19.6185 2.703 20.1635 1.66757 20 1.23161L19.9455 1.12261C19.891 0.959126 19.782 0.90463 19.6185 0.850135C19.455 0.795639 19.2371 0.795639 
        18.9646 0.850135H15.9673C15.9128 0.850135 15.8583 0.850135 15.7493 0.850135C15.6403 0.850135 15.6403 0.904631 15.6403 0.904631H15.5858L15.5313 0.959127C15.4768 0.959127 15.4768 1.01362 15.4223 1.06812C15.3678 1.12261 15.3678 
        1.17711 15.3134 1.23161C14.9864 2.04904 14.6049 2.86648 14.2234 3.57493C13.951 4.0109 13.733 4.39237 13.515 4.71934C13.297 5.04632 13.1335 5.2643 12.97 5.42779C12.8065 5.59128 12.6975 5.70027 12.5886 5.80926C12.4796 5.91825 
        12.3706 5.91825 12.3161 5.91825C12.2616 5.91825 12.2071 5.86376 12.1526 5.86376C12.0436 5.80926 11.9891 5.70027 11.9346 5.59128C11.8801 5.48229 11.8256 5.3733 11.8256 5.20981C11.8256 5.04632 11.7711 4.88283 11.7711 4.77384C11.7711 
        4.66485 11.7711 4.50136 11.7711 4.28338C11.7711 4.06539 11.7711 3.90191 11.7711 3.84741C11.7711 3.57493 11.7711 3.30245 11.7711 2.97548C11.7711 2.6485 11.7711 2.43052 11.7711 2.26703C11.7711 2.10354 11.7711 1.88556 11.7711 
        1.66757C11.7711 1.44959 11.7711 1.2861 11.7166 1.17711C11.7166 1.06812 11.6621 0.959126 11.6076 0.850135C11.5531 0.741143 11.4986 0.632151 11.3896 0.577655C11.2807 0.523159 11.1717 0.468664 11.0627 0.414168C10.6812 0.305176 
        10.2452 0.305176 9.64578 0.305176C8.33788 0.305176 7.52044 0.359671 7.13896 0.577655C6.97548 0.632151 6.86648 0.741143 6.75749 0.904631C6.6485 1.06812 6.59401 1.12261 6.703 1.17711C7.13896 1.23161 7.41144 1.39509 7.57493 
        1.61308L7.62943 1.72207C7.68392 1.83106 7.73842 1.99455 7.79292 2.21253C7.84741 2.43052 7.84741 2.703 7.90191 2.97548C7.9564 3.46594 7.9564 3.90191 7.90191 4.28338C7.84741 4.66485 7.84741 4.93733 7.79292 5.10082C7.73842 5.3188 
        7.73842 5.48229 7.62943 5.59128C7.57493 5.70027 7.52044 5.80926 7.52044 5.80926C7.52044 5.86376 7.46594 5.86376 7.46594 5.86376C7.35695 5.91825 7.30245 5.91825 7.19346 5.91825C7.08447 5.91825 6.97548 5.86376 6.86649 5.75477C6.703 
        5.64577 6.59401 5.53678 6.43052 5.3733C6.26703 5.20981 6.10354 4.99182 5.94005 4.66485C5.77657 4.33787 5.55858 4.0109 5.3406 3.57493L5.17711 3.24795C5.06812 3.02997 4.90463 2.75749 4.74114 2.37602C4.57766 1.99455 4.41417 1.66757 
        4.25068 1.2861C4.19619 1.17711 4.08719 1.06812 3.9782 0.959127H3.92371C3.86921 0.904631 3.81471 0.90463 3.76022 0.850135C3.70572 0.850135 3.59673 0.795639 3.54223 0.795639H0.708447C0.381471 0.795639 0.163488 0.904631 0.0544959 
        1.01362V1.06812C0 1.12261 0 1.17711 0 1.23161C0 1.2861 0 1.39509 0.0544959 1.50409C0.490463 2.48501 0.92643 3.41144 1.41689 4.33787C1.90736 5.2643 2.34332 5.97275 2.6703 6.51771C3.05177 7.06267 3.37875 7.60763 3.76022 8.09809C4.14169 
        8.58855 4.35967 8.91553 4.52316 9.02452C4.63215 9.18801 4.74114 9.24251 4.79564 9.3515L5.06812 9.62398C5.23161 9.78746 5.50409 10.0054 5.77657 10.2234C6.10354 10.4414 6.43052 10.6594 6.86649 10.9319C7.24796 11.1499 7.73842 11.3678 8.22888 
        11.4768C8.77384 11.6403 9.26431 11.6948 9.75477 11.6403H10.9537C11.1717 11.6403 11.3896 11.5313 11.4986 11.4223L11.5531 11.3678C11.6076 11.3133 11.6076 11.2589 11.6076 11.1499C11.6076 11.0409 11.6621 10.9864 11.6621 10.8774C11.6621 10.6049 
        11.6621 10.3324 11.7166 10.0599C11.7711 9.84196 11.8256 9.62398 11.8801 9.51498C11.9346 9.40599 12.0436 9.297 12.0981 9.18801C12.2071 9.07902 12.2616 9.07902 12.2616 9.02452C12.3161 9.02452 12.3161 8.97003 12.3706 8.97003C12.5341 8.91553 
        12.752 8.97003 12.97 9.13351C13.188 9.297 13.406 9.51499 13.624 9.73297C13.842 9.95095 14.0599 10.2234 14.3324 10.5504C14.6049 10.8229 14.8774 11.0954 15.0409 11.2044L15.2589 11.3133C15.4223 11.4223 15.5858 11.4768 15.8038 11.5313C16.0218 
        11.5858 16.2398 11.6403 16.4033 11.5858L19.0736 11.5313C19.346 11.5313 19.564 11.4768 19.673 11.4223C19.8365 11.3133 19.891 11.2589 19.9455 11.1499C20 11.0409 20 10.9319 19.9455 10.7684C19.9455 10.7684 19.9455 10.6594 19.891 10.6049Z"/>
    </symbol>

    <symbol id="fb" viewBox="0 0 24 24">
        <path d="M24 22.6921C24 23.4114 23.4114 24 22.6921 24H16.545V14.7139H19.6839L20.1417 11.1172H16.545V8.82834C16.545 7.78202 16.8065 7.06267 18.3106 7.06267H20.2071V3.79292C19.8801 3.72752 18.7684 3.66213 17.3951 3.66213C14.6485 3.66213 
        12.752 5.3624 12.752 8.43597V11.1172H9.61308V14.7139H12.752V24H1.3079C0.588556 24 0 23.4114 0 22.6921V1.3079C0 0.588556 0.588556 0 1.3079 0H22.6921C23.4114 0 24 0.588556 24 1.3079V22.6921Z"/>
    </symbol>

    <symbol id="tw" viewBox="0 0 20 18">
        <path d="M19.455 1.01613C18.6376 1.5066 17.7657 1.83357 16.8392 2.05155C16.0763 1.23412 15.0409 0.743652 13.842 0.743652C11.5531 0.743652 9.75477 2.65101 9.75477 4.93984C9.75477 5.26681 9.80926 5.59379 9.86376 
        5.92076C6.43052 5.70278 3.43324 4.01341 1.41689 1.4521C1.08992 2.05155 0.871935 2.8145 0.871935 3.57744C0.871935 5.04883 1.58038 6.30224 2.7248 7.06518C2.07084 7.06518 1.41689 6.84719 0.871935 6.52022V6.62921C0.871935 
        8.64556 2.28883 10.3894 4.14169 10.7709C3.81471 10.8799 3.43324 10.9344 3.05177 10.9344C2.77929 10.9344 2.50681 10.9344 2.28883 10.8799C2.83379 12.5693 4.30518 13.7682 6.10354 13.8227C4.68665 14.9671 2.94278 15.621 0.980926 
        15.621C0.653951 15.621 0.326975 15.621 0 15.5665C1.79837 16.7654 3.9782 17.4739 6.26703 17.4739C13.842 17.4739 17.9292 11.0434 17.9292 5.4848C17.9292 5.32131 17.9292 5.10332 17.9292 4.93984C18.7466 4.34038 19.455 3.63194 20 
        2.76C19.2916 3.08698 18.4741 3.30496 17.6567 3.41395C18.4741 2.8145 19.1281 1.99706 19.455 1.01613Z"/>
    </symbol>

    <symbol id="in" viewBox="0 0 24 24">
        <path d="M21.1226 0H2.87738C1.3079 0 0 1.24251 0 2.81199V21.188C0 22.7575 1.3079 24 2.87738 24H21.1226C22.6921 24 24 22.7575 24 21.188V2.81199C24 1.24251 22.6921 0 21.1226 0ZM17.2643 3.72752C17.2643 3.33515 17.5913 3.00817 
        17.9837 3.00817H20.2725C20.6649 3.00817 20.9918 3.33515 20.9918 3.72752V5.95095C20.9918 6.34332 20.6649 6.6703 20.2725 6.6703H18.049C17.6567 6.6703 17.3297 6.34332 17.3297 5.95095L17.2643 3.72752ZM12.0327 7.38965C14.5831 
        7.38965 16.6757 9.41689 16.6757 11.9673C16.6757 14.5177 14.5831 16.545 12.0327 16.545C9.48229 16.545 7.38965 14.5177 7.38965 11.9673C7.38965 9.48229 9.48229 7.38965 12.0327 7.38965ZM21.7112 20.9918C21.7112 21.3842 21.3842 
        21.7112 20.9918 21.7112H3.00817C2.6158 21.7112 2.28883 21.3842 2.28883 20.9918V9.74387H5.23161C4.83924 10.3324 4.70845 11.3787 4.70845 12.0327C4.70845 16.0218 7.9782 19.2916 12.0327 19.2916C16.0872 19.2916 19.3569 16.0218 
        19.3569 12.0327C19.3569 11.3787 19.2916 10.3324 18.7684 9.74387H21.7766L21.7112 20.9918Z"/>
    </symbol>

    <symbol id="arrow-left" viewBox="0 0 15 29">
        <path d="M14 28L1.91422 15.9142C1.13317 15.1332 1.13317 13.8668 1.91421 13.0858L14 1"/>
    </symbol>

    <symbol id="arrow-right" viewBox="0 0 15 29">
        <path d="M1 1L13.0858 13.0858C13.8668 13.8668 13.8668 15.1332 13.0858 15.9142L1 28"/>
    </symbol>

    <symbol id="click" viewBox="0 0 91 91">
        <path d="M66.6903 19.1641L60.8069 13.2789C59.9858 12.4575 58.8943 12 57.7301 12C56.5659 12 
        55.4641 12.4575 54.6429 13.2789C53.7802 14.142 53.3436 15.2961 53.3644 16.4607C52.2002 16.4399 
        51.0464 16.8766 50.1837 17.7396C49.3209 18.6026 48.8843 19.7568 48.9051 20.9213C47.7409 20.8901 
        46.5871 21.3373 45.7244 22.2003C44.8616 23.0633 44.425 24.2175 44.4458 25.382C43.2816 25.3612 
        42.1278 25.7979 41.2651 26.6609L26.7127 41.2179L22.3157 45.6162C22.191 45.7306 22.0974 45.8865 
        22.0455 46.0529C22.0455 46.0737 22.0351 46.0841 22.0351 46.1049C21.9727 46.344 21.9935 46.5832 
        22.0974 46.7911C22.1182 46.8431 22.1494 46.8847 22.1702 46.9367C22.3053 47.1343 22.5028 47.2902 
        22.7523 47.363L26.3177 48.382L27.3363 51.9485C27.4299 52.2916 27.7001 52.5619 28.0536 52.6659L31.6189 
        53.6849L32.6376 57.2514C32.7103 57.5009 32.8663 57.6985 33.0741 57.8336C33.1157 57.8648 33.1573 
        57.8856 33.2093 57.9064C33.3444 57.9688 33.4899 58 33.6355 58C33.729 58 33.8226 57.9896 33.9265 
        57.9584C34.1136 57.9064 34.2695 57.8128 34.3943 57.6777L38.7912 53.2794L45.1007 46.9679C45.2254 
        47.0927 45.371 47.1759 45.5373 47.2278C45.9011 47.3318 46.2961 47.2382 46.5663 46.9679L54.0816 
        39.4503C54.487 39.0448 54.487 38.3897 54.0816 37.9842L53.9881 37.8906C54.4247 37.1731 54.6325 
        36.3517 54.6222 35.5303C55.7863 35.5511 56.9401 35.1144 57.8029 34.2514C58.6656 33.3883 59.1022 
        32.2342 59.0814 31.0696C60.2456 31.1008 61.3994 30.6537 62.2622 29.7907C63.1249 28.9277 63.5615 
        27.7735 63.5407 26.609C64.7049 26.6297 65.8587 26.193 66.7215 25.33C67.5426 24.5086 68 23.4064 
        68 22.2419C67.9688 21.0877 67.5218 19.9855 66.6903 19.1641ZM34.1344 54.9638L33.4484 52.5411C33.3548 
        52.198 33.0845 51.9277 32.7311 51.8237L29.1658 50.8151L28.1471 47.2486C28.0536 46.9055 27.7833 
        46.6352 27.4299 46.5312L25.0079 45.8449L27.4299 43.4222L36.5459 52.5411L34.1344 54.9638ZM46.4208 
        44.1501L43.9781 32.8476C43.8533 32.2862 43.3024 31.9326 42.7411 32.047C42.1798 32.1718 41.8264 
        32.7229 41.9407 33.2844L44.4043 44.6908L38.022 51.075L28.9059 41.9561L41.9927 28.8653L51.8468 
        38.7224L46.4208 44.1501ZM65.2246 23.8639C64.5282 24.5606 63.468 24.7373 62.5948 24.2902C62.1998 
        24.0927 61.7113 24.1655 61.3994 24.4878C61.0876 24.8101 61.0044 25.2884 61.2019 25.6835C61.6385 
        26.5674 61.4618 27.6279 60.7758 28.3142C60.0897 29.0005 59.0191 29.1876 58.1459 28.7405C57.7509 
        28.5429 57.2624 28.6157 56.9505 28.9381C56.6387 29.25 56.5555 29.7387 56.753 30.1338C57.1896 
        31.0176 57.0129 32.0782 56.3269 32.7645C55.6304 33.4611 54.5702 33.6379 53.697 33.1908C53.302 
        32.9932 52.8135 33.066 52.5017 33.3883C52.1898 33.7003 52.1067 34.189 52.3042 34.5841C52.5744 
        35.1352 52.616 35.7486 52.4289 36.3101L43.6662 27.5448C44.2276 27.368 44.8408 27.3992 45.3917 
        27.6695C45.7867 27.8671 46.2753 27.7943 46.5871 27.472C46.899 27.1496 46.9821 26.6713 46.7846 
        26.2762C46.348 25.3924 46.5248 24.3318 47.2108 23.6456C47.8968 22.9593 48.9675 22.7722 49.8406 
        23.2193C50.2356 23.4168 50.7242 23.344 51.036 23.0217C51.3479 22.7098 51.431 22.2211 51.2335 
        21.8259C50.7969 20.9421 50.9736 19.8816 51.6597 19.1953C52.3561 18.4986 53.4164 18.3219 54.2895 
        18.769C54.6845 18.9665 55.1731 18.8938 55.4849 18.5714C55.7967 18.2595 55.8799 17.7708 55.6824 
        17.3757C55.2458 16.4919 55.4225 15.4313 56.1086 14.745C56.5452 14.3083 57.1169 14.0796 57.7301 
        14.0796C58.3434 14.0796 58.9151 14.3187 59.3517 14.745L65.2246 20.6302C65.6612 21.0669 65.8899 
        21.6388 65.8899 22.2523C65.8899 22.8553 65.6508 23.4376 65.2246 23.8639Z
        M26.9369 65.8641C27.815 65.8641 28.6044 66.0463 29.305 66.4106L28.9687 67.994L28.8146 68.064C28.5343 
        67.8679 28.2261 67.7137 27.8898 67.6016C27.5535 67.4895 27.2078 67.4335 26.8529 67.4335C25.3676 67.4335 
        24.625 68.4097 24.625 70.362C24.625 71.4176 24.8165 72.2116 25.1995 72.7441C25.5918 73.2672 26.1616 73.5287 
        26.9089 73.5287C27.2546 73.5287 27.6095 73.4774 27.9738 73.3746C28.3475 73.2625 28.6838 73.113 28.9827 
        72.9262L29.1509 73.0243L28.9967 74.6357C28.2868 74.9626 27.5395 75.1261 26.7548 75.1261C25.4096 75.1261 
        24.3821 74.7338 23.6721 73.9491C22.9715 73.1644 22.6212 72.0388 22.6212 70.5722C22.6212 69.0776 22.9949 
        67.9192 23.7422 67.0972C24.4988 66.2751 25.5638 65.8641 26.9369 65.8641ZM34.6539 65.8501C35.9243 65.8501 
        36.9005 66.2378 37.5824 67.0131C38.2737 67.7791 38.6193 68.8721 38.6193 70.2919C38.6193 71.8426 38.2456 
        73.0383 37.4983 73.879C36.751 74.7198 35.6954 75.1401 34.3316 75.1401C33.0705 75.1401 32.0943 74.7478 
        31.4031 73.9631C30.7212 73.1691 30.3802 72.0481 30.3802 70.6002C30.3802 69.0776 30.7492 67.9052 31.4872 
        67.0832C32.2345 66.2611 33.29 65.8501 34.6539 65.8501ZM34.4857 67.3774C33.7384 67.3774 33.1966 67.611 
        32.8603 68.078C32.524 68.5451 32.3559 69.3064 32.3559 70.362C32.3559 71.567 32.5194 72.4264 32.8463 
        72.9402C33.1826 73.454 33.7338 73.7109 34.4998 73.7109C35.2471 73.7109 35.7889 73.4774 36.1252 73.0103C36.4614 
        72.5339 36.6296 71.7585 36.6296 70.6843C36.6296 69.4979 36.4614 68.6525 36.1252 68.1481C35.7982 67.6343 35.2517 
        67.3774 34.4857 67.3774ZM44.0826 65.8641C44.9607 65.8641 45.75 66.0463 46.4506 66.4106L46.1143 67.994L45.9602 
        68.064C45.68 67.8679 45.3717 67.7137 45.0354 67.6016C44.6991 67.4895 44.3535 67.4335 43.9985 67.4335C42.5132 
        67.4335 41.7706 68.4097 41.7706 70.362C41.7706 71.4176 41.9621 72.2116 42.3451 72.7441C42.7374 73.2672 43.3073 
        73.5287 44.0546 73.5287C44.4002 73.5287 44.7552 73.4774 45.1195 73.3746C45.4931 73.2625 45.8294 73.113 46.1284 
        72.9262L46.2965 73.0243L46.1424 74.6357C45.4324 74.9626 44.6851 75.1261 43.9004 75.1261C42.5553 75.1261 
        41.5277 74.7338 40.8178 73.9491C40.1172 73.1644 39.7669 72.0388 39.7669 70.5722C39.7669 69.0776 40.1405 
        67.9192 40.8878 67.0972C41.6445 66.2751 42.7094 65.8641 44.0826 65.8641ZM53.7192 66.1304L53.6071 67.5456L51.9116 
        67.4615H51.3511L51.2811 72.1415L51.3651 75H49.4595L49.5576 72.3097L49.4875 67.4615H48.927L47.2036 67.5456L47.0775 
        67.3914L47.2036 65.9762H53.6071L53.7192 66.1304ZM61.4165 75H59.4829L59.2587 73.823L59.0205 72.9823L57.2549 
        72.9402L55.6996 72.9823L55.4614 73.7249L55.2232 75H53.3456L56.4002 65.9762H58.6561L61.4165 75ZM58.6141 71.511L57.5492 
        67.7558H57.4231L56.19 71.511L57.3951 71.539L58.6141 71.511ZM67.6024 70.32C68.2189 70.4694 68.672 70.7216 68.9616 
        71.0766C69.2605 71.4222 69.41 71.88 69.41 72.4498C69.41 74.1966 68.0415 75.0701 65.3044 75.0701C64.5011 75.0701 
        63.679 75.0467 62.8383 75L62.9364 72.3097L62.8383 65.9762L66.0471 65.9622C66.9719 65.9622 67.6912 66.1584 68.2049 
        66.5507C68.7187 66.9337 68.9756 67.4895 68.9756 68.2182C68.9756 68.7039 68.8542 69.1289 68.6113 69.4933C68.3777 
        69.8576 68.0415 70.1331 67.6024 70.32ZM67.0279 68.4704C67.0279 68.0593 66.9065 67.7698 66.6636 67.6016C66.4207 
        67.4241 65.9957 67.3354 65.3885 67.3354H64.7019L64.6599 69.7875L65.977 69.8295C66.332 69.7361 66.5935 69.582 
        66.7617 69.3671C66.9392 69.1523 67.0279 68.8534 67.0279 68.4704ZM65.6267 73.7109C66.2152 73.7109 66.6683 73.5941 
        66.9859 73.3606C67.3128 73.1271 67.4763 72.7908 67.4763 72.3517C67.4763 71.6885 67.0466 71.2775 66.1872 71.1187L64.6319 
        71.1467L64.6178 72.1415L64.6599 73.6548C64.9868 73.6922 65.3091 73.7109 65.6267 73.7109Z"/>
    </symbol>
</svg>