<svg xmlns="http://www.w3.org/2000/svg">
    <symbol id="logo" viewBox="0 0 53 38">
        <path d="M0 8.56477C0 6.10363 0.8 4.13472 2.4 2.46114C4.1 0.88601 6.1 0 8.6 0C11.2 0 13.2 0.689119 14.8 2.1658L13.6 3.93782C13 3.34715 12.2 2.95337 11.3 2.65803C10.4 2.36269 9.6 2.1658 8.7 2.1658C6.8 2.1658 5.3 2.75648 4.1 3.93782C3 5.21762 2.5 6.6943 2.5 8.56477C2.5 10.4352 
        3.1 12.0104 4.2 13.2902C5.4 14.5699 6.9 15.1606 8.8 15.1606C9.7 15.1606 10.7 14.9637 11.6 14.5699C12.5 14.1762 13.3 13.6839 14 12.9948L15.3 14.6684C13.5 16.4404 11.3 17.3264 8.7 17.3264C6.1 17.3264 4 16.5389 2.4 14.8653C0.8 13.0933 0 11.0259 0 8.56477Z 
        M18.3 17.0311V0.295334H20.6V7.58031H29.4V0.295334H31.8V16.9326H29.4V9.64767H20.6V16.9326H18.3V17.0311Z
        M35.2 8.56477C35.2 6.20207 36 4.13472 37.7 2.46114C39.3 0.787565 41.4 0 43.9 0C46.4 0 48.5 0.787565 50.1 2.46114C51.8 4.13472 52.6 6.10363 52.6 8.56477C52.6 11.0259 51.8 13.0933 50.1 14.7668C48.4 16.4404 46.4 17.3264 43.9 17.3264C41.4 17.3264 39.3 
        16.4404 37.7 14.7668C36 13.0933 35.2 11.0259 35.2 8.56477ZM37.7 8.56477C37.7 10.4352 38.3 12.0104 39.5 13.2902C40.7 14.5699 42.2 15.1606 44 15.1606C45.8 15.1606 47.3 14.5699 48.5 13.2902C49.7 12.0104 50.3 10.4352 50.3 8.56477C50.3 6.79275 49.7 5.21762 
        48.5 4.03627C47.3 2.85492 45.8 2.1658 44 2.1658C42.2 2.1658 40.7 2.75648 39.5 4.03627C38.2 5.21762 37.7 6.6943 37.7 8.56477Z
        M0 29.2383C0 26.7772 0.8 24.8083 2.4 23.1347C4.1 21.5596 6.1 20.6736 8.6 20.6736C11.2 20.6736 13.2 21.3627 14.8 22.8394L13.6 24.6114C13 24.0207 12.2 23.6269 11.3 23.3316C10.4 23.0363 9.5 22.8394 8.7 22.8394C6.8 22.8394 5.3 23.43 4.1 24.6114C3 25.7927 
        2.4 27.3679 2.4 29.1399C2.4 31.0104 3 32.5855 4.1 33.8653C5.3 35.1451 6.8 35.7357 8.7 35.7357C9.6 35.7357 10.6 35.5389 11.5 35.1451C12.4 34.7513 13.2 34.2591 13.9 33.5699L15.2 35.2435C13.4 37.0155 11.2 37.9015 8.6 37.9015C6 37.9015 3.9 37.114 2.3 35.4404C0.8 33.7668 0 31.6995 0 29.2383Z
        M16.8 29.2383C16.8 26.7772 17.6 24.8083 19.2 23.1347C20.8 21.5596 22.9 20.6736 25.4 20.6736C28 20.6736 30 21.3627 31.6 22.8394L30.4 24.6114C29.8 24.0207 29 23.6269 28.1 23.3316C27.2 23.0363 26.3 22.8394 25.5 22.8394C23.6 22.8394 22.1 23.43 20.9 24.6114C19.8 25.7927 19.2 27.3679 19.2 
        29.1399C19.2 31.0104 19.8 32.5855 20.9 33.8653C22.1 35.1451 23.6 35.7357 25.5 35.7357C26.4 35.7357 27.4 35.5389 28.3 35.1451C29.2 34.7513 30 34.2591 30.7 33.5699L32 35.2435C30.2 37.0155 28 37.9015 25.4 37.9015C22.8 37.9015 20.7 37.114 19.1 35.4404C17.6 33.7668 16.8 31.6995 16.8 29.2383Z
        M33.6 29.2383C33.6 26.8756 34.4 24.8083 36.1 23.1347C37.7 21.4611 39.8 20.6736 42.3 20.6736C44.8 20.6736 46.9 21.4611 48.5 23.1347C50.1 24.8083 51 26.7772 51 29.2383C51 31.6995 50.2 33.7668 48.5 35.4404C46.8 37.114 44.8 38 42.3 38C39.8 38 37.7 37.114 36.1 35.4404C34.4 33.7668 33.6 
        31.6995 33.6 29.2383ZM36 29.2383C36 31.1088 36.6 32.6839 37.8 33.9637C39 35.2435 40.5 35.8342 42.3 35.8342C44.1 35.8342 45.6 35.2435 46.8 33.9637C48 32.6839 48.6 31.1088 48.6 29.2383C48.6 27.4663 48 25.8912 46.8 24.7098C45.6 23.5285 44.1 22.8394 42.3 22.8394C40.5 22.8394 39 23.43 37.8 
        24.7098C36.6 25.8912 36 27.3679 36 29.2383Z"/>
    </symbol>

    <symbol id="leaf" viewBox="0 0 39 37">
        <path d="M5.68662 22.4709C5.68662 22.9568 5.92954 23.4426 5.92954 23.9284C5.92954 25.8718 6.17246 29.0297 6.17246 29.0297H7.38704C7.38704 29.0297 7.38704 23.9284 6.65829 21.2563C5.92954 18.3413 5.68662 12.9971 7.38704 9.11043L6.17246 8.6246C6.17246 8.6246 4.71495 11.5396 
        4.71495 16.1551C4.71495 19.0701 4.95787 20.2847 5.20078 21.4992C4.22911 20.7705 1.55701 18.3413 1.79993 13.24C2.28577 7.41001 7.38704 2.06581 7.38704 2.06581C7.38704 2.06581 16.375 10.5679 8.35872 20.0417L9.33039 20.7705C9.33039 20.7705 12.9742 16.6409 12.9742 12.0254C12.9742 
        7.41001 11.0308 3.52332 7.38704 0.365387C7.38704 0.365387 1.07118 6.43834 0.585343 13.7259C0.342425 20.5276 5.4437 22.9568 5.4437 22.9568L5.68662 22.4709Z
        M18.3183 16.1551C9.33038 18.8272 9.81622 27.5722 10.0591 29.5156C6.9012 32.6735 5.4437 35.5885 5.4437 35.5885L6.41537 36.0743C15.6462 20.7705 29.9784 23.6855 29.9784 23.6855V22.4709C21.2334 21.4993 15.1604 
        24.9001 11.0308 28.301C10.7879 25.143 12.2454 17.6126 21.4763 16.8838C32.1647 16.6409 37.2659 22.9568 37.2659 22.9568C31.6788 31.9447 25.363 33.1593 21.4763 33.6452C17.3467 34.3739 12.2454 31.4589 12.2454 31.4589L11.7596 
        32.4306C11.7596 32.4306 16.1321 35.3456 21.7192 34.8597C33.8651 33.4022 38.4805 22.7138 38.4805 22.7138C37.2659 20.2847 28.278 13.7259 18.3183 16.1551Z"/>
    </symbol>

    <symbol id="car" viewBox="0 0 40 32">
        <path d="M 6.84767 12.6328 L 9.01168 10.9016 H 9.22808 C 9.87729 10.9016 10.3101 10.4688 10.3101 9.81963 C 10.3101 9.38683 10.0937 9.17043 9.87729 8.95403 V 4.40961 H 8.79528 V 8.95403 C 8.36248 9.17043 8.14608 9.38683 8.14608 9.81963 V 10.036 L 5.98207 11.7672 L 6.84767 12.6328Z
                M 39.7406 24.3185 V 17.3936 C 39.7406 15.2296 38.875 14.364 38.875 14.364 C 38.875 14.364 36.711 11.5508 35.4126 9.81961 C 34.1142 8.08841 32.383 8.08841 32.383 8.08841 H 25.0254 V 7.0064 C 25.0254 5.49159 23.9434 4.40959 22.4285 4.40959 H 16.1529 C 14.6381 2.24558 12.0413 
                0.730774 9.22809 0.730774 C 4.46727 0.730774 0.788452 4.62599 0.788452 9.38681 C 0.788452 11.3344 1.43765 13.0656 2.51966 14.5804 V 24.1021 C 2.51966 25.6169 3.60166 26.6989 5.11647 26.6989 H 6.19848 V 26.9153 C 6.19848 29.5121 8.36249 31.6761 10.9593 31.6761 C 13.5561 31.6761 
                15.7201 29.5121 15.7201 26.9153 C 15.7201 26.6989 15.7201 26.6989 15.7201 26.6989 H 22.2121 H 22.4285 C 23.0777 26.6989 24.5926 26.6989 26.5402 26.6989 V 26.9153 C 26.5402 29.5121 28.7042 31.6761 31.301 31.6761 C 33.8978 31.6761 36.0618 29.5121 36.0618 26.9153 C 36.0618 26.6989 
                36.0618 26.6989 36.0618 26.6989 C 36.2782 26.6989 36.4946 26.6989 36.4946 26.6989 C 40.1734 26.9153 39.7406 24.3185 39.7406 24.3185 Z M 38.6586 16.7444 C 38.6586 16.7444 38.6586 16.9608 38.6586 17.3936 H 30.219 C 29.7862 17.3936 29.3534 16.9608 29.3534 16.528 V 13.0656 C 29.3534 
                12.6328 29.7862 12.2 30.219 12.2 H 35.8454 C 36.4946 12.8492 37.1438 13.7148 37.5766 14.364 C 38.6586 15.6624 38.6586 16.7444 38.6586 16.7444 Z M 9.22809 2.02918 C 13.3397 2.02918 16.8021 5.27519 16.8021 9.60321 C 16.8021 13.9312 13.3397 16.9608 9.22809 16.9608 C 5.11647 16.9608 
                1.87046 13.4984 1.87046 9.38681 C 1.87046 5.27519 5.11647 2.02918 9.22809 2.02918 Z M 10.7429 30.5941 C 8.79529 30.5941 7.28048 29.0793 7.28048 27.1317 C 7.28048 25.1841 8.79529 23.6693 10.7429 23.6693 C 12.6905 23.6693 14.2053 25.1841 14.2053 27.1317 C 14.2053 29.0793 12.6905 30.5941 
                10.7429 30.5941 Z M 15.0709 25.6169 C 14.4217 23.8857 12.6905 22.3709 10.7429 22.3709 C 8.79529 22.3709 7.06408 23.6693 6.41488 25.6169 H 4.90007 C 4.25087 25.6169 3.60166 24.9677 3.60166 24.3185 V 15.6624 C 5.11647 16.9608 7.06408 17.8264 9.22809 17.8264 C 13.9889 17.8264 17.6677 13.9312 
                17.6677 9.38681 C 17.6677 8.08841 17.2349 6.79 16.8021 5.708 H 22.4285 C 23.0777 5.708 23.7269 6.3572 23.7269 7.0064 V 24.3185 C 23.7269 24.9677 23.0777 25.6169 22.4285 25.6169 H 15.0709 Z M 31.0846 30.5941 C 29.137 30.5941 27.6222 29.0793 27.6222 27.1317 C 27.6222 25.1841 29.137 23.6693 
                31.0846 23.6693 C 33.0322 23.6693 34.547 25.1841 34.547 27.1317 C 34.547 29.0793 33.0322 30.5941 31.0846 30.5941 Z M 36.4946 25.8333 H 35.629 C 34.9798 23.8857 33.2486 22.5873 31.301 22.5873 C 29.137 22.5873 27.4058 23.8857 26.973 25.8333 H 24.809 C 25.2418 25.4005 25.4582 24.9677 25.4582 
                24.3185 V 8.95401 C 25.4582 8.95401 30.219 8.95401 32.1666 8.95401 C 34.1142 8.95401 34.9798 10.2524 34.9798 10.2524 C 34.9798 10.2524 34.7634 10.6852 35.1962 11.118 H 30.219 C 29.137 11.118 28.4878 11.9836 28.4878 12.8492 V 16.3116 C 28.4878 17.3936 29.3534 18.0428 30.219 18.0428 H 38.875 
                C 38.875 19.7741 38.875 22.3709 38.875 23.6693 C 38.6586 26.0497 36.4946 25.8333 36.4946 25.8333 Z"/>
    </symbol>

    <symbol id="cm" viewBox="0 0 37 37">
        <path d="M10.5679 7.16711C10.5679 7.65294 11.5396 8.13878 12.9971 8.13878C14.4546 8.13878 15.4263 7.65294 15.4263 7.16711C15.4263 6.68127 14.4546 6.19543 12.9971 6.19543C11.7825 6.19543 10.5679 6.43835 10.5679 7.16711Z
        M36.8031 16.1551C36.8031 13.7259 34.8597 11.7825 32.4306 11.7825H31.4589H10.0821C10.0821 11.7825 4.25207 12.0254 1.57998 7.41001C1.82289 4.00916 4.49499 1.57998 7.89584 1.57998H17.6126C21.2563 1.57998 23.9284 4.49499 
        23.9284 7.89584V9.11043H25.143V8.13876C25.143 3.76624 21.7422 0.365387 17.3696 0.365387H8.13876C3.76624 0.365387 0.365387 3.76624 0.365387 8.13876V11.2967V11.7825V19.5559C0.365387 23.9284 3.76624 27.3293 8.13876 
        27.3293H9.83919V26.1147H7.89584C4.25207 26.1147 1.57998 23.1997 1.57998 19.7988V11.7825V11.2967V9.59627C2.30873 10.5679 4.73791 12.9971 9.83919 12.9971C17.1267 12.9971 31.216 12.9971 31.216 12.9971H32.4306C34.131 
        12.9971 35.3456 14.2117 35.3456 15.9121V17.3696V17.8555C35.3456 19.5559 34.131 20.7705 32.4306 20.7705H32.1876H16.8838C14.4546 20.7705 12.5113 22.7138 12.5113 25.143V31.7018C12.5113 34.131 14.4546 36.0743 16.8838 
        36.0743H32.4306C34.8597 36.0743 36.8031 34.131 36.8031 31.7018V25.143C36.8031 25.143 36.8031 19.313 36.8031 17.6126C36.8031 17.6126 36.8031 17.6126 36.8031 17.3696V16.1551ZM35.3456 32.1876C35.3456 33.8881 34.131 35.1027 
        32.4306 35.1027H16.6409C14.9405 35.1027 13.7259 33.8881 13.7259 32.1876V25.143C13.7259 23.4426 14.9405 22.228 16.6409 22.228H21.2563V26.3576H22.4709V22.228H28.058H30.2443V26.3576H31.4589V22.228H32.4306C33.6451 22.228 34.8597 
        21.7422 35.5885 21.0134V32.1876H35.3456Z"/>
    </symbol>

    <symbol id="phone" viewBox="0 0 14 15">
        <path d="M13.7455 13.0923C13.4909 13.5935 12.9818 13.8441 12.4727 14.0947C11.8364 14.4706 11.3273 14.5959 10.6909 14.5959C9.8 14.5959 8.90909 14.22 8.14545 13.9694C7.50909 13.7188 7 13.4682 6.36364 13.2176C4.58182 
        12.09 2.54545 10.0853 1.52727 8.45643C1.14545 7.82996 0.890909 7.32878 0.636364 6.70231C0.381818 5.82525 0 5.07349 0 4.07113C0 3.44466 0.127273 2.81819 0.509091 2.19172C0.763636 1.69054 1.01818 1.18936 1.52727 
        0.938771C1.90909 0.938771 2.54545 0.813477 2.92727 0.813477C3.05455 0.813477 3.05455 0.813477 3.18182 0.813477C3.43636 0.938771 3.56364 1.31465 3.69091 1.56524C3.94545 2.19172 4.32727 2.69289 4.58182 3.31936C4.83636 
        3.56995 5.09091 3.82054 5.09091 4.07113C5.09091 4.6976 3.30909 5.57466 3.30909 6.07584C3.30909 6.32643 3.56364 6.70231 3.69091 6.9529C4.70909 8.70702 5.98182 9.95997 7.76364 10.9623C8.01818 11.0876 8.4 11.3382 8.65455 
        11.3382C9.16364 11.3382 10.0545 9.58408 10.6909 9.58408C10.9455 9.58408 11.2 9.83467 11.4545 10.0853C11.9636 10.4611 12.6 10.7117 13.1091 11.0876C13.3636 11.2129 13.7455 11.3382 13.8727 11.5888C13.8727 11.7141 13.8727 
        11.7141 13.8727 11.8394C14 12.09 13.8727 12.7164 13.7455 13.0923Z"/>
    </symbol>

    <symbol id="person" viewBox="0 0 65 69">
        <path d="M60.03 19.665C60.72 18.975 61.41 18.285 61.755 17.595C64.17 14.49 63.825 13.11 61.41 11.04C58.995 8.97 55.2 12.075 55.2 12.075C55.2 12.075 54.855 12.42 54.51 12.765C50.715 9.315 45.885 6.555 40.365 5.175C38.295 
        2.07 35.19 0 31.74 0C27.945 0 24.84 2.415 22.77 5.52C18.285 6.9 14.145 9.315 10.695 12.42C10.005 12.075 8.625 10.695 6.9 10.35C4.485 10.005 2.07 11.73 1.725 14.145C1.725 15.525 3.105 17.595 4.83 19.665C1.725 24.495 0 30.015 
        0 36.225C0 53.82 14.49 68.31 32.43 68.31C38.64 68.31 44.85 66.585 49.68 63.48L48.645 61.065C44.16 49.68 45.195 42.435 45.54 38.985C46.575 35.19 50.37 30.015 52.44 27.255C53.82 25.53 55.89 23.805 57.96 21.735C60.72 25.875 62.1 
        30.705 62.1 36.225C62.1 44.16 58.65 51.405 53.475 56.925L55.545 58.65C61.41 52.785 64.86 44.85 64.86 36.225C64.86 30.015 63.135 24.495 60.03 19.665ZM31.74 2.76C36.225 2.76 39.675 6.9 39.675 12.075C39.675 17.25 36.225 21.39 31.74 
        21.39C27.255 21.39 23.805 17.595 23.805 12.075C23.805 6.555 27.255 2.76 31.74 2.76ZM31.74 24.15C37.605 24.15 42.435 18.63 42.435 12.075C42.435 10.695 42.09 9.66 41.745 8.28C45.885 9.66 49.335 11.73 52.44 14.49C49.68 16.905 45.54 20.01 
        43.47 21.39C40.365 23.805 35.19 26.22 31.05 26.22C26.91 26.22 24.84 24.495 21.735 23.115C18.975 21.735 14.49 16.56 12.42 14.49C15.18 12.075 18.285 10.35 21.39 8.97C21.39 10.005 21.045 11.04 21.045 12.075C21.045 18.975 25.875 24.15 31.74 
        24.15ZM2.76 36.225C2.76 31.05 4.14 26.22 6.555 21.735C7.245 22.425 7.59 22.77 7.59 22.77C7.59 22.77 16.215 32.775 17.94 35.19C19.665 37.605 17.595 39.33 16.215 45.54C15.18 50.37 15.18 56.925 15.18 60.03C7.59 54.51 2.76 45.885 2.76 36.225ZM56.235 
        19.665C54.855 21.045 50.025 25.185 45.885 31.74C41.745 38.295 42.435 43.47 42.78 47.265C43.125 51.06 44.16 54.51 44.505 55.89C44.85 56.925 46.23 60.72 46.575 61.755C42.435 63.825 37.605 65.205 32.775 65.205C27.255 65.205 22.425 63.825 17.94 61.41C17.94 
        49.68 18.63 47.955 18.975 46.23C18.975 44.505 20.01 41.055 21.045 38.295C21.735 35.88 20.7 33.81 19.665 32.775C18.63 31.74 8.625 19.665 6.9 17.25C4.83 14.835 4.485 13.8 6.21 13.11C7.935 12.075 12.42 17.595 14.49 20.01C16.215 22.425 24.15 28.98 31.395 
        28.635C38.64 28.29 43.815 24.495 45.885 23.115C47.61 21.735 56.58 14.49 57.96 13.455C59.34 12.42 61.065 13.455 60.72 14.49C60.375 15.525 57.615 18.285 56.235 19.665Z"/>
    </symbol>

    <symbol id="smile" viewBox="0 0 64 64">
        <path d="M32 0C14.4314 0 0 14.4314 0 32C0 49.5686 14.4314 64 32 64C49.5686 64 64 49.5686 64 32C64 14.4314 49.5686 0 32 0ZM32 61.4902C15.6863 61.4902 2.5098 48.3137 2.5098 32C2.5098 15.6863 15.6863 2.5098 32 2.5098C48.3137 2.5098 61.4902 15.6863 61.4902 32C61.4902 48.3137 48.3137 61.4902 32 61.4902Z
        M32 48.6275C21.0196 48.6275 14.4314 38.902 14.4314 38.902L12.2353 40.4706C21.0196 51.7647 32 51.451 32 51.451C32 51.451 42.9804 52.0785 51.7647 40.4706L49.5686 38.902C49.5686 38.902 42.9804 48.6275 32 48.6275Z
        M21.3333 35.451C28.8627 32 30.1176 27.6078 30.1176 25.4118C30.1176 22.902 28.549 20.0784 25.7255 20.0784C22.5882 20.0784 21.3333 21.6471 21.3333 21.6471C21.3333 21.6471 20.0784 20.0784 16.9412 20.0784C14.1176 
        20.0784 12.549 23.2157 12.549 25.4118C12.549 27.6078 13.8039 32 21.3333 35.451ZM21.3333 24.7843C22.902 22.2745 27.2941 21.9608 27.6078 25.098C27.6078 29.4902 21.3333 32.6275 21.3333 32.6275C21.3333 32.6275 
        15.0588 29.4902 15.0588 25.098C15.3725 21.9608 19.7647 22.2745 21.3333 24.7843Z
        M42.6667 35.451C50.1961 32 51.451 27.6078 51.451 25.7255C51.451 23.2157 49.8824 20.3922 47.0588 20.3922C43.9216 20.3922 42.6667 21.9608 42.6667 21.9608C42.6667 21.9608 41.4118 20.3922 38.2745 20.3922C35.451 
        20.3922 33.8824 23.5294 33.8824 25.7255C33.8824 27.6078 35.1373 32 42.6667 35.451ZM42.6667 24.7843C44.2353 22.2745 48.6274 21.9608 48.9412 25.098C48.9412 29.4902 42.6667 32.6274 42.6667 32.6274C42.6667 32.6274 
        36.3922 29.4902 36.3922 25.098C36.7059 21.9608 41.098 22.2745 42.6667 24.7843Z"/>
    </symbol>

    <symbol id="hand" viewBox="0 0 64 54">
        <path d="M49.9372 8.44973C43.9103 8.44973 36.1614 12.7547 36.4484 21.6515C36.4484 21.6515 24.6816 17.9206 21.2377 30.2614C21.2377 30.2614 19.2287 25.9565 16.6457 23.9475C13.7758 21.9385 10.3318 16.7726 10.0448 
        14.1896C10.3318 12.7547 10.6188 12.7547 11.1928 12.4677C11.4798 12.4677 11.4798 14.7636 14.0628 15.0506C16.3587 14.7636 16.9327 14.1896 17.7937 13.0417L20.3767 10.1717C20.3767 10.1717 22.9596 6.72776 20.6637 
        5.00578C18.6547 2.99681 14.9238 -0.734128 10.3318 0.126858C7.74888 0.700849 5.73991 2.70982 5.73991 2.70982L2.29596 5.86677C2.29596 5.86677 0 8.16273 0 12.7547C0 16.7726 0.860987 23.3735 0.860987 23.3735C0.860987 
        23.3735 1.72197 28.5394 2.00897 30.2614C2.29596 31.9834 4.59193 42.0282 10.0448 47.4811C13.4888 51.4991 15.4978 53.221 17.2197 53.508C20.0897 53.508 21.5247 51.7861 23.8206 51.7861C26.1166 51.7861 28.4126 53.508 
        33.2915 53.508C38.1704 53.508 49.0762 50.6381 53.6682 36.5753C57.9731 34.8533 64 31.6964 64 22.2255C64 12.7547 55.6771 8.44973 49.9372 8.44973ZM51.9462 34.8533C48.7892 47.4811 38.7444 50.9251 33.8655 51.4991C29.2735 
        51.4991 26.6906 49.7771 23.2466 49.7771C21.2377 49.7771 18.3677 51.4991 17.5067 51.4991C16.6457 51.4991 14.3498 49.4901 11.4798 46.3331C8.60987 43.1762 7.46188 40.3062 6.3139 38.0103C5.16592 35.7143 3.15695 26.5304 
        3.15695 26.5304C3.15695 26.5304 2.29596 17.3466 2.29596 13.3287C2.29596 9.59771 4.01794 7.30175 4.01794 7.30175C4.01794 7.30175 6.3139 5.29278 8.60987 3.28381C11.1928 1.27484 14.3498 2.70982 14.3498 2.70982C14.3498 
        2.70982 17.5067 4.71879 18.6547 5.86677C20.0897 7.01475 18.6547 8.16273 18.6547 8.16273C18.6547 8.16273 15.4978 12.1807 14.3498 12.4677C12.9148 12.7547 12.6278 9.31072 12.6278 9.31072C11.1928 9.88471 8.89686 10.4587 
        8.03587 13.0417C7.17489 16.1986 11.7668 22.7995 15.2108 25.9565C18.3677 29.1134 20.3767 34.2793 20.3767 34.2793L22.9596 33.4183C22.9596 33.4183 22.6726 27.3914 27.8386 24.2345C33.5785 21.0775 38.7444 25.3825 38.7444 
        25.3825C37.0224 11.0327 49.6502 10.7457 50.5112 10.7457C51.3722 10.7457 61.417 11.6067 62.278 21.6515C61.704 33.1313 51.9462 34.8533 51.9462 34.8533Z"/>
    </symbol>

    <symbol id="footer-phone" viewBox="0 0 12 12">
        <path d="M11.9741 9.29781C11.9401 9.19554 11.7242 9.04488 11.3264 8.84619C11.2186 8.78357 11.0651 8.69846 10.8664 8.59049C10.6675 8.48252 10.487 8.38303 10.3252 8.2921C10.163 8.20121 10.0111 8.11314 9.86919 8.02804C9.8465 
        8.01099 9.77548 7.96135 9.65617 7.87879C9.53674 7.79646 9.43602 7.73535 9.35348 7.6955C9.27112 7.65589 9.19011 7.63595 9.11055 7.63595C8.99694 7.63595 8.85503 7.71696 8.68464 7.87879C8.51425 8.04082 8.35795 8.21682 8.21598 
        8.40733C8.07398 8.59774 7.92339 8.77375 7.76446 8.93569C7.60529 9.09769 7.47452 9.17861 7.37237 9.17861C7.32108 9.17861 7.25714 9.16432 7.18052 9.13611C7.10392 9.10772 7.04565 9.08339 7.00565 9.06378C6.96601 9.04375 6.89798 
        9.00411 6.80132 8.94425C6.70448 8.88458 6.65063 8.8519 6.63929 8.84619C5.86093 8.41428 5.19337 7.91995 4.63651 7.36332C4.07982 6.80636 3.58543 6.13887 3.15363 5.36041C3.14796 5.34904 3.11521 5.29504 3.0556 5.1985C2.9959 5.10188 
        2.95611 5.03379 2.93623 4.99391C2.91635 4.95417 2.8922 4.89591 2.86384 4.81922C2.83548 4.74253 2.82124 4.67865 2.82124 4.62746C2.82124 4.52525 2.90223 4.3945 3.06417 4.23539C3.22608 4.07638 3.40226 3.92575 3.59253 3.78381C3.78295 
        3.64187 3.95895 3.48557 4.12092 3.31518C4.28283 3.1447 4.36379 3.00273 4.36379 2.88912C4.36379 2.80963 4.34391 2.72858 4.30418 2.64622C4.26441 2.56368 4.20334 2.46297 4.12092 2.34359C4.03847 2.22428 3.98877 2.15332 3.9717 2.13049C3.88656 
        1.98855 3.79859 1.83658 3.70758 1.67464C3.61656 1.51272 3.51722 1.33225 3.40922 1.13341C3.30131 0.934661 3.21614 0.781198 3.15357 0.673257C2.95483 0.275613 2.80429 0.0596122 2.70199 0.0256419C2.6622 0.00859706 2.6025 0 2.52303 0C2.36954 
        0 2.1693 0.0283583 1.92216 0.0852542C1.67494 0.14206 1.4804 0.201643 1.33834 0.26424C1.05425 0.383494 0.753144 0.730063 0.434934 1.30383C0.145171 1.8378 0.000305176 2.36631 0.000305176 2.88897C0.000305176 3.04225 0.0102455 3.19139 
        0.0301262 3.3364C0.0500069 3.48127 0.0855294 3.64465 0.136724 3.8265C0.187828 4.00829 0.229052 4.14333 0.260217 4.23127C0.291411 4.31928 0.34965 4.47692 0.434904 4.70426C0.520039 4.93155 0.571233 5.07068 0.588278 5.12182C0.787115 
        5.67866 1.02291 6.17576 1.29559 6.61329C1.74425 7.34051 2.35652 8.09207 3.13205 8.86766C3.90761 9.64318 4.65901 10.2554 5.3863 10.7043C5.82376 10.9769 6.32105 11.2127 6.8778 11.4117C6.92896 11.4286 7.0681 11.4797 7.29529 11.5651C7.52258 
        11.6503 7.68028 11.7086 7.76828 11.7398C7.85631 11.7711 7.99139 11.8124 8.17303 11.8636C8.35506 11.9147 8.51828 11.9503 8.66315 11.9703C8.80811 11.9899 8.95727 12 9.11059 12C9.63321 12 10.1618 11.8551 10.6958 11.5653C11.2695 11.2473 11.616 
        10.9461 11.7353 10.6618C11.7981 10.5199 11.8575 10.3253 11.9143 10.0781C11.9713 9.83095 11.9996 9.63074 11.9996 9.47727C11.9998 9.39748 11.9912 9.33793 11.9741 9.29781Z"/>
    </symbol>

    <symbol id="vk" viewBox="0 0 20 12">
        <path d="M19.891 10.6049C19.891 10.5504 19.8365 10.4959 19.8365 10.4959C19.5095 9.89646 18.8011 9.07902 17.8202 8.20708C17.3842 7.77111 17.1117 7.49864 17.0027 7.33515C16.7847 7.06267 16.7302 6.79019 16.8392 6.51771C16.9482 
        6.29973 17.2207 5.86376 17.7657 5.15531C18.0381 4.77384 18.2561 4.50136 18.4196 4.28338C19.6185 2.703 20.1635 1.66757 20 1.23161L19.9455 1.12261C19.891 0.959126 19.782 0.90463 19.6185 0.850135C19.455 0.795639 19.2371 0.795639 
        18.9646 0.850135H15.9673C15.9128 0.850135 15.8583 0.850135 15.7493 0.850135C15.6403 0.850135 15.6403 0.904631 15.6403 0.904631H15.5858L15.5313 0.959127C15.4768 0.959127 15.4768 1.01362 15.4223 1.06812C15.3678 1.12261 15.3678 
        1.17711 15.3134 1.23161C14.9864 2.04904 14.6049 2.86648 14.2234 3.57493C13.951 4.0109 13.733 4.39237 13.515 4.71934C13.297 5.04632 13.1335 5.2643 12.97 5.42779C12.8065 5.59128 12.6975 5.70027 12.5886 5.80926C12.4796 5.91825 
        12.3706 5.91825 12.3161 5.91825C12.2616 5.91825 12.2071 5.86376 12.1526 5.86376C12.0436 5.80926 11.9891 5.70027 11.9346 5.59128C11.8801 5.48229 11.8256 5.3733 11.8256 5.20981C11.8256 5.04632 11.7711 4.88283 11.7711 4.77384C11.7711 
        4.66485 11.7711 4.50136 11.7711 4.28338C11.7711 4.06539 11.7711 3.90191 11.7711 3.84741C11.7711 3.57493 11.7711 3.30245 11.7711 2.97548C11.7711 2.6485 11.7711 2.43052 11.7711 2.26703C11.7711 2.10354 11.7711 1.88556 11.7711 
        1.66757C11.7711 1.44959 11.7711 1.2861 11.7166 1.17711C11.7166 1.06812 11.6621 0.959126 11.6076 0.850135C11.5531 0.741143 11.4986 0.632151 11.3896 0.577655C11.2807 0.523159 11.1717 0.468664 11.0627 0.414168C10.6812 0.305176 
        10.2452 0.305176 9.64578 0.305176C8.33788 0.305176 7.52044 0.359671 7.13896 0.577655C6.97548 0.632151 6.86648 0.741143 6.75749 0.904631C6.6485 1.06812 6.59401 1.12261 6.703 1.17711C7.13896 1.23161 7.41144 1.39509 7.57493 
        1.61308L7.62943 1.72207C7.68392 1.83106 7.73842 1.99455 7.79292 2.21253C7.84741 2.43052 7.84741 2.703 7.90191 2.97548C7.9564 3.46594 7.9564 3.90191 7.90191 4.28338C7.84741 4.66485 7.84741 4.93733 7.79292 5.10082C7.73842 5.3188 
        7.73842 5.48229 7.62943 5.59128C7.57493 5.70027 7.52044 5.80926 7.52044 5.80926C7.52044 5.86376 7.46594 5.86376 7.46594 5.86376C7.35695 5.91825 7.30245 5.91825 7.19346 5.91825C7.08447 5.91825 6.97548 5.86376 6.86649 5.75477C6.703 
        5.64577 6.59401 5.53678 6.43052 5.3733C6.26703 5.20981 6.10354 4.99182 5.94005 4.66485C5.77657 4.33787 5.55858 4.0109 5.3406 3.57493L5.17711 3.24795C5.06812 3.02997 4.90463 2.75749 4.74114 2.37602C4.57766 1.99455 4.41417 1.66757 
        4.25068 1.2861C4.19619 1.17711 4.08719 1.06812 3.9782 0.959127H3.92371C3.86921 0.904631 3.81471 0.90463 3.76022 0.850135C3.70572 0.850135 3.59673 0.795639 3.54223 0.795639H0.708447C0.381471 0.795639 0.163488 0.904631 0.0544959 
        1.01362V1.06812C0 1.12261 0 1.17711 0 1.23161C0 1.2861 0 1.39509 0.0544959 1.50409C0.490463 2.48501 0.92643 3.41144 1.41689 4.33787C1.90736 5.2643 2.34332 5.97275 2.6703 6.51771C3.05177 7.06267 3.37875 7.60763 3.76022 8.09809C4.14169 
        8.58855 4.35967 8.91553 4.52316 9.02452C4.63215 9.18801 4.74114 9.24251 4.79564 9.3515L5.06812 9.62398C5.23161 9.78746 5.50409 10.0054 5.77657 10.2234C6.10354 10.4414 6.43052 10.6594 6.86649 10.9319C7.24796 11.1499 7.73842 11.3678 8.22888 
        11.4768C8.77384 11.6403 9.26431 11.6948 9.75477 11.6403H10.9537C11.1717 11.6403 11.3896 11.5313 11.4986 11.4223L11.5531 11.3678C11.6076 11.3133 11.6076 11.2589 11.6076 11.1499C11.6076 11.0409 11.6621 10.9864 11.6621 10.8774C11.6621 10.6049 
        11.6621 10.3324 11.7166 10.0599C11.7711 9.84196 11.8256 9.62398 11.8801 9.51498C11.9346 9.40599 12.0436 9.297 12.0981 9.18801C12.2071 9.07902 12.2616 9.07902 12.2616 9.02452C12.3161 9.02452 12.3161 8.97003 12.3706 8.97003C12.5341 8.91553 
        12.752 8.97003 12.97 9.13351C13.188 9.297 13.406 9.51499 13.624 9.73297C13.842 9.95095 14.0599 10.2234 14.3324 10.5504C14.6049 10.8229 14.8774 11.0954 15.0409 11.2044L15.2589 11.3133C15.4223 11.4223 15.5858 11.4768 15.8038 11.5313C16.0218 
        11.5858 16.2398 11.6403 16.4033 11.5858L19.0736 11.5313C19.346 11.5313 19.564 11.4768 19.673 11.4223C19.8365 11.3133 19.891 11.2589 19.9455 11.1499C20 11.0409 20 10.9319 19.9455 10.7684C19.9455 10.7684 19.9455 10.6594 19.891 10.6049Z"/>
    </symbol>

    <symbol id="fb" viewBox="0 0 24 24">
        <path d="M24 22.6921C24 23.4114 23.4114 24 22.6921 24H16.545V14.7139H19.6839L20.1417 11.1172H16.545V8.82834C16.545 7.78202 16.8065 7.06267 18.3106 7.06267H20.2071V3.79292C19.8801 3.72752 18.7684 3.66213 17.3951 3.66213C14.6485 3.66213 
        12.752 5.3624 12.752 8.43597V11.1172H9.61308V14.7139H12.752V24H1.3079C0.588556 24 0 23.4114 0 22.6921V1.3079C0 0.588556 0.588556 0 1.3079 0H22.6921C23.4114 0 24 0.588556 24 1.3079V22.6921Z"/>
    </symbol>

    <symbol id="tw" viewBox="0 0 20 18">
        <path d="M19.455 1.01613C18.6376 1.5066 17.7657 1.83357 16.8392 2.05155C16.0763 1.23412 15.0409 0.743652 13.842 0.743652C11.5531 0.743652 9.75477 2.65101 9.75477 4.93984C9.75477 5.26681 9.80926 5.59379 9.86376 
        5.92076C6.43052 5.70278 3.43324 4.01341 1.41689 1.4521C1.08992 2.05155 0.871935 2.8145 0.871935 3.57744C0.871935 5.04883 1.58038 6.30224 2.7248 7.06518C2.07084 7.06518 1.41689 6.84719 0.871935 6.52022V6.62921C0.871935 
        8.64556 2.28883 10.3894 4.14169 10.7709C3.81471 10.8799 3.43324 10.9344 3.05177 10.9344C2.77929 10.9344 2.50681 10.9344 2.28883 10.8799C2.83379 12.5693 4.30518 13.7682 6.10354 13.8227C4.68665 14.9671 2.94278 15.621 0.980926 
        15.621C0.653951 15.621 0.326975 15.621 0 15.5665C1.79837 16.7654 3.9782 17.4739 6.26703 17.4739C13.842 17.4739 17.9292 11.0434 17.9292 5.4848C17.9292 5.32131 17.9292 5.10332 17.9292 4.93984C18.7466 4.34038 19.455 3.63194 20 
        2.76C19.2916 3.08698 18.4741 3.30496 17.6567 3.41395C18.4741 2.8145 19.1281 1.99706 19.455 1.01613Z"/>
    </symbol>

    <symbol id="in" viewBox="0 0 24 24">
        <path d="M21.1226 0H2.87738C1.3079 0 0 1.24251 0 2.81199V21.188C0 22.7575 1.3079 24 2.87738 24H21.1226C22.6921 24 24 22.7575 24 21.188V2.81199C24 1.24251 22.6921 0 21.1226 0ZM17.2643 3.72752C17.2643 3.33515 17.5913 3.00817 
        17.9837 3.00817H20.2725C20.6649 3.00817 20.9918 3.33515 20.9918 3.72752V5.95095C20.9918 6.34332 20.6649 6.6703 20.2725 6.6703H18.049C17.6567 6.6703 17.3297 6.34332 17.3297 5.95095L17.2643 3.72752ZM12.0327 7.38965C14.5831 
        7.38965 16.6757 9.41689 16.6757 11.9673C16.6757 14.5177 14.5831 16.545 12.0327 16.545C9.48229 16.545 7.38965 14.5177 7.38965 11.9673C7.38965 9.48229 9.48229 7.38965 12.0327 7.38965ZM21.7112 20.9918C21.7112 21.3842 21.3842 
        21.7112 20.9918 21.7112H3.00817C2.6158 21.7112 2.28883 21.3842 2.28883 20.9918V9.74387H5.23161C4.83924 10.3324 4.70845 11.3787 4.70845 12.0327C4.70845 16.0218 7.9782 19.2916 12.0327 19.2916C16.0872 19.2916 19.3569 16.0218 
        19.3569 12.0327C19.3569 11.3787 19.2916 10.3324 18.7684 9.74387H21.7766L21.7112 20.9918Z"/>
    </symbol>

    <symbol id="arrow-left" viewBox="0 0 15 29">
        <path d="M14 28L1.91422 15.9142C1.13317 15.1332 1.13317 13.8668 1.91421 13.0858L14 1"/>
    </symbol>

    <symbol id="arrow-right" viewBox="0 0 15 29">
        <path d="M1 1L13.0858 13.0858C13.8668 13.8668 13.8668 15.1332 13.0858 15.9142L1 28"/>
    </symbol>

    <symbol id="click" viewBox="0 0 91 91">
        <path d="M66.6903 19.1641L60.8069 13.2789C59.9858 12.4575 58.8943 12 57.7301 12C56.5659 12 
        55.4641 12.4575 54.6429 13.2789C53.7802 14.142 53.3436 15.2961 53.3644 16.4607C52.2002 16.4399 
        51.0464 16.8766 50.1837 17.7396C49.3209 18.6026 48.8843 19.7568 48.9051 20.9213C47.7409 20.8901 
        46.5871 21.3373 45.7244 22.2003C44.8616 23.0633 44.425 24.2175 44.4458 25.382C43.2816 25.3612 
        42.1278 25.7979 41.2651 26.6609L26.7127 41.2179L22.3157 45.6162C22.191 45.7306 22.0974 45.8865 
        22.0455 46.0529C22.0455 46.0737 22.0351 46.0841 22.0351 46.1049C21.9727 46.344 21.9935 46.5832 
        22.0974 46.7911C22.1182 46.8431 22.1494 46.8847 22.1702 46.9367C22.3053 47.1343 22.5028 47.2902 
        22.7523 47.363L26.3177 48.382L27.3363 51.9485C27.4299 52.2916 27.7001 52.5619 28.0536 52.6659L31.6189 
        53.6849L32.6376 57.2514C32.7103 57.5009 32.8663 57.6985 33.0741 57.8336C33.1157 57.8648 33.1573 
        57.8856 33.2093 57.9064C33.3444 57.9688 33.4899 58 33.6355 58C33.729 58 33.8226 57.9896 33.9265 
        57.9584C34.1136 57.9064 34.2695 57.8128 34.3943 57.6777L38.7912 53.2794L45.1007 46.9679C45.2254 
        47.0927 45.371 47.1759 45.5373 47.2278C45.9011 47.3318 46.2961 47.2382 46.5663 46.9679L54.0816 
        39.4503C54.487 39.0448 54.487 38.3897 54.0816 37.9842L53.9881 37.8906C54.4247 37.1731 54.6325 
        36.3517 54.6222 35.5303C55.7863 35.5511 56.9401 35.1144 57.8029 34.2514C58.6656 33.3883 59.1022 
        32.2342 59.0814 31.0696C60.2456 31.1008 61.3994 30.6537 62.2622 29.7907C63.1249 28.9277 63.5615 
        27.7735 63.5407 26.609C64.7049 26.6297 65.8587 26.193 66.7215 25.33C67.5426 24.5086 68 23.4064 
        68 22.2419C67.9688 21.0877 67.5218 19.9855 66.6903 19.1641ZM34.1344 54.9638L33.4484 52.5411C33.3548 
        52.198 33.0845 51.9277 32.7311 51.8237L29.1658 50.8151L28.1471 47.2486C28.0536 46.9055 27.7833 
        46.6352 27.4299 46.5312L25.0079 45.8449L27.4299 43.4222L36.5459 52.5411L34.1344 54.9638ZM46.4208 
        44.1501L43.9781 32.8476C43.8533 32.2862 43.3024 31.9326 42.7411 32.047C42.1798 32.1718 41.8264 
        32.7229 41.9407 33.2844L44.4043 44.6908L38.022 51.075L28.9059 41.9561L41.9927 28.8653L51.8468 
        38.7224L46.4208 44.1501ZM65.2246 23.8639C64.5282 24.5606 63.468 24.7373 62.5948 24.2902C62.1998 
        24.0927 61.7113 24.1655 61.3994 24.4878C61.0876 24.8101 61.0044 25.2884 61.2019 25.6835C61.6385 
        26.5674 61.4618 27.6279 60.7758 28.3142C60.0897 29.0005 59.0191 29.1876 58.1459 28.7405C57.7509 
        28.5429 57.2624 28.6157 56.9505 28.9381C56.6387 29.25 56.5555 29.7387 56.753 30.1338C57.1896 
        31.0176 57.0129 32.0782 56.3269 32.7645C55.6304 33.4611 54.5702 33.6379 53.697 33.1908C53.302 
        32.9932 52.8135 33.066 52.5017 33.3883C52.1898 33.7003 52.1067 34.189 52.3042 34.5841C52.5744 
        35.1352 52.616 35.7486 52.4289 36.3101L43.6662 27.5448C44.2276 27.368 44.8408 27.3992 45.3917 
        27.6695C45.7867 27.8671 46.2753 27.7943 46.5871 27.472C46.899 27.1496 46.9821 26.6713 46.7846 
        26.2762C46.348 25.3924 46.5248 24.3318 47.2108 23.6456C47.8968 22.9593 48.9675 22.7722 49.8406 
        23.2193C50.2356 23.4168 50.7242 23.344 51.036 23.0217C51.3479 22.7098 51.431 22.2211 51.2335 
        21.8259C50.7969 20.9421 50.9736 19.8816 51.6597 19.1953C52.3561 18.4986 53.4164 18.3219 54.2895 
        18.769C54.6845 18.9665 55.1731 18.8938 55.4849 18.5714C55.7967 18.2595 55.8799 17.7708 55.6824 
        17.3757C55.2458 16.4919 55.4225 15.4313 56.1086 14.745C56.5452 14.3083 57.1169 14.0796 57.7301 
        14.0796C58.3434 14.0796 58.9151 14.3187 59.3517 14.745L65.2246 20.6302C65.6612 21.0669 65.8899 
        21.6388 65.8899 22.2523C65.8899 22.8553 65.6508 23.4376 65.2246 23.8639Z
        M26.9369 65.8641C27.815 65.8641 28.6044 66.0463 29.305 66.4106L28.9687 67.994L28.8146 68.064C28.5343 
        67.8679 28.2261 67.7137 27.8898 67.6016C27.5535 67.4895 27.2078 67.4335 26.8529 67.4335C25.3676 67.4335 
        24.625 68.4097 24.625 70.362C24.625 71.4176 24.8165 72.2116 25.1995 72.7441C25.5918 73.2672 26.1616 73.5287 
        26.9089 73.5287C27.2546 73.5287 27.6095 73.4774 27.9738 73.3746C28.3475 73.2625 28.6838 73.113 28.9827 
        72.9262L29.1509 73.0243L28.9967 74.6357C28.2868 74.9626 27.5395 75.1261 26.7548 75.1261C25.4096 75.1261 
        24.3821 74.7338 23.6721 73.9491C22.9715 73.1644 22.6212 72.0388 22.6212 70.5722C22.6212 69.0776 22.9949 
        67.9192 23.7422 67.0972C24.4988 66.2751 25.5638 65.8641 26.9369 65.8641ZM34.6539 65.8501C35.9243 65.8501 
        36.9005 66.2378 37.5824 67.0131C38.2737 67.7791 38.6193 68.8721 38.6193 70.2919C38.6193 71.8426 38.2456 
        73.0383 37.4983 73.879C36.751 74.7198 35.6954 75.1401 34.3316 75.1401C33.0705 75.1401 32.0943 74.7478 
        31.4031 73.9631C30.7212 73.1691 30.3802 72.0481 30.3802 70.6002C30.3802 69.0776 30.7492 67.9052 31.4872 
        67.0832C32.2345 66.2611 33.29 65.8501 34.6539 65.8501ZM34.4857 67.3774C33.7384 67.3774 33.1966 67.611 
        32.8603 68.078C32.524 68.5451 32.3559 69.3064 32.3559 70.362C32.3559 71.567 32.5194 72.4264 32.8463 
        72.9402C33.1826 73.454 33.7338 73.7109 34.4998 73.7109C35.2471 73.7109 35.7889 73.4774 36.1252 73.0103C36.4614 
        72.5339 36.6296 71.7585 36.6296 70.6843C36.6296 69.4979 36.4614 68.6525 36.1252 68.1481C35.7982 67.6343 35.2517 
        67.3774 34.4857 67.3774ZM44.0826 65.8641C44.9607 65.8641 45.75 66.0463 46.4506 66.4106L46.1143 67.994L45.9602 
        68.064C45.68 67.8679 45.3717 67.7137 45.0354 67.6016C44.6991 67.4895 44.3535 67.4335 43.9985 67.4335C42.5132 
        67.4335 41.7706 68.4097 41.7706 70.362C41.7706 71.4176 41.9621 72.2116 42.3451 72.7441C42.7374 73.2672 43.3073 
        73.5287 44.0546 73.5287C44.4002 73.5287 44.7552 73.4774 45.1195 73.3746C45.4931 73.2625 45.8294 73.113 46.1284 
        72.9262L46.2965 73.0243L46.1424 74.6357C45.4324 74.9626 44.6851 75.1261 43.9004 75.1261C42.5553 75.1261 
        41.5277 74.7338 40.8178 73.9491C40.1172 73.1644 39.7669 72.0388 39.7669 70.5722C39.7669 69.0776 40.1405 
        67.9192 40.8878 67.0972C41.6445 66.2751 42.7094 65.8641 44.0826 65.8641ZM53.7192 66.1304L53.6071 67.5456L51.9116 
        67.4615H51.3511L51.2811 72.1415L51.3651 75H49.4595L49.5576 72.3097L49.4875 67.4615H48.927L47.2036 67.5456L47.0775 
        67.3914L47.2036 65.9762H53.6071L53.7192 66.1304ZM61.4165 75H59.4829L59.2587 73.823L59.0205 72.9823L57.2549 
        72.9402L55.6996 72.9823L55.4614 73.7249L55.2232 75H53.3456L56.4002 65.9762H58.6561L61.4165 75ZM58.6141 71.511L57.5492 
        67.7558H57.4231L56.19 71.511L57.3951 71.539L58.6141 71.511ZM67.6024 70.32C68.2189 70.4694 68.672 70.7216 68.9616 
        71.0766C69.2605 71.4222 69.41 71.88 69.41 72.4498C69.41 74.1966 68.0415 75.0701 65.3044 75.0701C64.5011 75.0701 
        63.679 75.0467 62.8383 75L62.9364 72.3097L62.8383 65.9762L66.0471 65.9622C66.9719 65.9622 67.6912 66.1584 68.2049 
        66.5507C68.7187 66.9337 68.9756 67.4895 68.9756 68.2182C68.9756 68.7039 68.8542 69.1289 68.6113 69.4933C68.3777 
        69.8576 68.0415 70.1331 67.6024 70.32ZM67.0279 68.4704C67.0279 68.0593 66.9065 67.7698 66.6636 67.6016C66.4207 
        67.4241 65.9957 67.3354 65.3885 67.3354H64.7019L64.6599 69.7875L65.977 69.8295C66.332 69.7361 66.5935 69.582 
        66.7617 69.3671C66.9392 69.1523 67.0279 68.8534 67.0279 68.4704ZM65.6267 73.7109C66.2152 73.7109 66.6683 73.5941 
        66.9859 73.3606C67.3128 73.1271 67.4763 72.7908 67.4763 72.3517C67.4763 71.6885 67.0466 71.2775 66.1872 71.1187L64.6319 
        71.1467L64.6178 72.1415L64.6599 73.6548C64.9868 73.6922 65.3091 73.7109 65.6267 73.7109Z"/>
    </symbol>



    <symbol id="grape" viewBox="0 0 24 24">
        <path d="M 16.443 12.7139 C 18.6035 11.225 18.0963 7.51466 15.5084 6.80076 C 15.3252 6.7491 14.5973 6.77728 14.508 6.69274 
        C 14.3624 6.55184 14.2732 5.88022 14.1605 5.67356 C 13.8364 5.07708 13.3198 4.59802 12.7139 4.30683 C 11.4458 3.69626 9.91467 
        3.95928 8.97064 5.01603 C 8.05948 3.7855 6.47201 3.40976 5.10058 4.072 C 4.49001 4.36319 3.96398 4.83755 3.62582 5.41994 C 
        3.45205 5.72053 3.32524 6.0446 3.25479 6.38746 C 3.17494 6.79607 3.27827 7.1718 3.24539 7.57102 C 3.22191 7.84812 3.28766 
        7.79176 2.98708 7.90448 C 2.818 7.97023 2.65361 8.05008 2.49393 8.14401 C 2.14637 8.35536 1.84578 8.63247 1.60156 8.95654 
        C 1.13659 9.5765 0.897057 10.3608 0.92054 11.1358 C 0.929934 11.488 1.00038 11.8403 1.1225 12.1738 C 1.19295 12.3663 1.28688 
        12.5542 1.39021 12.7327 C 1.43717 12.8078 1.5452 12.9205 1.56868 12.9957 C 1.63913 13.2117 1.63913 13.0379 1.5358 13.2446 C 1.33854 
        13.6297 0.9769 13.9068 0.803123 14.3295 C 0.62465 14.7569 0.54011 15.2172 0.544806 15.6822 C 0.549503 16.119 0.63874 16.5511 0.80782 
        16.9503 C 0.887664 17.1428 1.01917 17.3072 1.10371 17.4951 C 1.17416 17.6501 1.23052 17.636 1.19295 17.7675 C 1.17416 17.8286 0.911147 
        18.0211 0.873574 18.0634 C 0.300579 18.6974 -0.00470432 19.5334 -0.00000764548 20.3741 C 0.0140824 22.1918 1.50762 23.7135 3.34872 
        23.6195 C 4.17533 23.5773 4.97377 23.2109 5.54207 22.6051 C 5.62661 22.5158 5.85674 22.079 5.95537 22.0462 C 6.03522 22.0227 6.44383 
        22.234 6.52837 22.2575 C 6.96046 22.3702 7.41604 22.3843 7.85753 22.3045 C 8.67944 22.1589 9.43091 21.6892 9.91937 21.0129 C 10.0556 20.8297 
        10.1307 20.5996 10.2622 20.4211 C 10.2951 20.3788 10.3186 20.2004 10.3609 20.1769 C 10.3796 20.1675 10.6661 20.2614 10.7272 20.2708 C 11.2063 
        20.3648 11.7088 20.3413 12.1832 20.2098 C 12.681 20.0689 13.146 19.8059 13.5264 19.4536 C 13.6297 19.355 13.9444 18.8477 14.0571 18.8055 
        C 14.1839 18.7632 14.6113 18.9511 14.7616 18.9698 C 15.7573 19.0779 16.7671 18.6833 17.4528 17.9601 C 18.9323 16.382 18.4203 13.6391 16.443 
        12.7139 C 16.5699 12.6246 16.6967 12.5401 16.8235 12.4509 C 16.6967 12.5401 16.5699 12.6246 16.443 12.7139 Z M 13.8035 9.35106 C 13.9209 9.21485 
        14.0383 9.05517 14.1182 8.89548 C 14.1464 8.84851 14.1699 8.80155 14.1933 8.74988 C 14.3061 8.51975 14.4 8.28491 14.4564 8.03599 C 14.5362 7.69313 
        14.4657 7.64616 14.8039 7.61329 C 15.128 7.58511 15.5178 7.74479 15.7855 7.90448 C 16.3256 8.22855 16.6779 8.79215 16.8188 9.39802 C 16.955 9.9898 
        16.8939 10.6379 16.6121 11.1781 C 16.4618 11.4693 16.2458 11.7229 15.9828 11.9154 C 15.8935 11.9812 15.1092 12.3569 15.1092 12.2724 C 15.1092 12.2583 
        15.1092 12.2395 15.1092 12.2254 C 15.1139 12.1174 15.1092 12 15.0998 11.892 C 15.0998 11.8732 15.0951 11.8591 15.0951 11.8403 C 15.0951 11.8403 15.0951 
        11.8356 15.0951 11.8309 C 14.9965 10.8728 14.508 9.9945 13.7143 9.44029 C 13.7472 9.41681 13.7753 9.38393 13.8035 9.35106 C 13.8176 9.33697 13.7753 9.38393 
        13.8035 9.35106 C 13.9209 9.21485 13.7753 9.38393 13.8035 9.35106 Z M 13.7378 10.746 C 13.7472 10.7554 13.7519 10.7648 13.7565 10.7741 C 13.874 10.9385 
        13.9632 11.117 14.0383 11.3002 C 14.0477 11.3237 14.0524 11.3424 14.0618 11.3659 C 14.0665 11.3753 14.0665 11.3847 14.0712 11.3941 C 14.0759 11.4082 14.0806 
        11.4223 14.0853 11.4364 C 14.137 11.5867 14.1605 11.7464 14.1839 11.9013 C 14.1839 11.9248 14.1886 11.9436 14.1886 11.9671 C 14.1886 11.9765 14.1886 11.9906 
        14.1933 12 C 14.1933 12.0235 14.198 12.0422 14.198 12.0657 C 14.198 12.0704 14.198 12.0751 14.198 12.0798 C 14.2074 12.2818 14.2027 12.5213 14.137 12.7139 C 
        14.1323 12.7327 14.1323 12.7514 14.1276 12.7655 C 13.7941 13.5734 13.2775 14.292 12.371 14.4845 C 11.8074 14.6066 11.1264 14.5033 10.6567 14.1511 C 10.6192 
        14.1276 10.5816 14.0994 10.5487 14.0759 C 9.5859 13.3432 9.40743 12.0235 9.98042 10.9902 C 10.5722 9.91935 11.6524 9.60468 12.7702 9.98041 C 12.7937 9.9898 
        12.8172 10.0039 12.8407 10.0133 C 12.8642 10.0227 12.8877 10.0368 12.9111 10.0462 C 12.9158 10.0462 12.9205 10.0509 12.9252 10.0509 C 12.991 10.0837 13.0567 
        10.1213 13.1178 10.1636 C 13.1742 10.2012 13.2305 10.2387 13.2869 10.281 C 13.3385 10.3186 13.3855 10.3608 13.4325 10.4078 C 13.4419 10.4172 13.4513 10.4219 
        13.456 10.4313 C 13.5217 10.483 13.7143 10.7178 13.7378 10.746 C 13.7425 10.7554 13.7096 10.7084 13.7378 10.746 Z M 8.81565 11.2532 C 8.78747 11.3565 8.76398 
        11.4646 8.7452 11.5679 C 8.07827 11.5867 7.49119 11.2908 7.03091 10.8258 C 6.74441 10.5111 6.54715 10.126 6.45792 9.708 C 6.02113 8.56202 7.08257 7.1718 
        8.14872 6.90409 C 8.02661 8.07356 8.56672 9.27121 9.52954 9.95223 C 9.19608 10.328 8.95185 10.7788 8.81565 11.2579 C 8.83443 11.1922 8.85322 11.1264 8.87201 
        11.0559 C 8.85322 11.1264 8.83443 11.1875 8.81565 11.2532 C 8.78747 11.3565 8.95185 10.7695 8.81565 11.2532 Z M 9.49667 14.3436 C 8.96594 14.7194 8.48688 15.3017 
        8.30371 15.9358 C 8.22856 15.917 8.15342 15.8982 8.07827 15.87 C 7.86692 15.7996 7.63678 15.7855 7.41604 15.7808 C 7.3268 15.7808 7.23757 15.7808 7.14833 15.7855 
        C 7.07788 15.7996 7.01213 15.8043 6.94168 15.8043 C 6.88531 15.809 6.82895 15.8137 6.77729 15.8278 C 6.77259 15.8278 6.7679 15.8278 6.7679 15.8278 C 6.74441 15.8372 
        6.72093 15.8419 6.69745 15.8419 C 5.93189 15.4239 5.42465 14.5597 5.46692 13.6814 V 13.6767 C 5.46692 13.6532 5.46692 13.6297 5.47162 13.6062 C 5.47162 13.6015 5.47162 
        13.6015 5.47162 13.5968 C 5.47162 13.5781 5.47631 13.5593 5.47631 13.5452 V 13.5405 C 5.48101 13.4747 5.48571 13.3855 5.50449 13.3197 C 5.51858 13.2305 5.54207 13.1413 
        5.56555 13.0567 C 5.56555 13.052 5.56555 13.052 5.57025 13.0473 C 5.57025 13.0426 5.57494 13.0379 5.57494 13.0332 C 5.62191 12.8736 5.69236 12.7327 5.76281 12.5824 C 
        5.80038 12.5166 5.83796 12.4509 5.88492 12.3851 C 6.00704 12.1972 6.16203 12.0282 6.3405 11.8873 C 6.39216 11.8356 6.44383 11.7933 6.50958 11.7604 C 6.52837 11.7464 
        6.54715 11.7323 6.56594 11.7229 C 6.58003 11.7135 6.59412 11.7041 6.60821 11.6994 C 7.1859 12.2113 7.92328 12.4931 8.69353 12.4931 H 8.70762 C 8.72171 12.6716 8.7405 
        12.9299 8.82504 13.0943 C 8.83443 13.1272 8.84383 13.1601 8.85792 13.1976 C 8.85792 13.2023 8.86261 13.2023 8.86261 13.207 C 8.87201 13.2399 8.8861 13.2728 8.89549 
        13.3104 C 9.027 13.6861 9.23365 14.0383 9.49667 14.3436 Z M 9.33698 6.09626 C 9.33698 6.09157 9.34167 6.08687 9.34167 6.08217 V 6.07748 C 10.4595 4.02973 13.6016 
        4.94558 13.6297 7.21407 C 13.6297 7.21877 13.6297 7.22346 13.6297 7.22816 V 7.23286 C 13.6297 7.77767 13.4419 8.3037 13.1131 8.7311 C 13.1084 8.73579 13.1084 8.73579 
        13.1037 8.74049 C 13.0286 8.83912 12.9393 8.92836 12.8501 9.0129 C 12.2301 8.81094 11.3753 8.77337 10.7742 9.07395 C 10.6849 9.10683 10.3421 9.32757 10.2669 9.32288 
        C 10.1448 9.31818 9.95694 9.11622 9.8724 9.04577 C 9.59999 8.81564 9.38395 8.51975 9.24304 8.19098 C 9.24304 8.18628 9.23835 8.18158 9.23835 8.18158 C 8.95655 7.51466 
        9.0223 6.65986 9.31819 6.11505 C 9.29471 6.17141 9.29941 6.16202 9.33698 6.09626 C 9.33698 6.09157 9.26653 6.22777 9.33698 6.09626 Z M 6.41095 4.64029 C 7.25166 4.64029 
        8.02191 5.11935 8.42113 5.87082 C 8.41643 5.88022 8.41643 5.88491 8.41173 5.89431 C 8.40704 5.9037 8.40234 5.91779 8.39764 5.92718 C 6.7585 6.08217 5.50449 7.54753 5.48101 
        9.17258 C 5.29314 9.09274 5.10997 8.97532 4.95498 8.83912 C 4.9362 8.82503 4.92211 8.81094 4.90332 8.79685 C 3.21252 7.52405 4.40547 4.64029 6.41095 4.64029 Z M 3.63991 8.67943 
        C 3.64461 8.68413 3.64461 8.68883 3.64931 8.69352 C 3.70567 8.79215 3.79021 8.94714 3.87475 9.03168 C 3.88884 9.05047 3.89823 9.06456 3.91232 9.08335 C 3.92171 9.09274 3.93111 
        9.10683 3.9405 9.11622 C 3.95459 9.13031 3.96398 9.1491 3.97807 9.16319 C 4.227 9.46378 4.55577 9.75027 4.91271 9.92405 C 5.10058 10.0227 5.48101 10.0696 5.62661 10.2012 C 5.7769 
        10.3327 5.87553 10.807 5.99295 10.9949 C 5.83326 11.0935 5.67827 11.2203 5.54676 11.3565 C 5.53737 11.3612 5.53267 11.3706 5.52328 11.3753 C 5.50919 11.3894 5.4998 11.3988 5.48571 
        11.4129 C 5.26966 11.6289 5.09119 11.8779 4.94089 12.1503 C 4.94089 12.155 4.9362 12.1597 4.9362 12.1597 C 4.88923 12.1972 4.86575 12.2442 4.86575 12.2959 C 4.85635 12.3194 4.84226 
        12.3428 4.83287 12.3663 C 4.83287 12.3663 4.83287 12.3663 4.83287 12.371 C 4.79999 12.4415 4.77181 12.5166 4.74363 12.5918 C 4.72015 12.6528 4.69197 12.7186 4.68258 12.7843 C 4.67788 
        12.8031 4.67318 12.8219 4.66849 12.8407 C 4.66379 12.8595 4.65909 12.8783 4.6544 12.897 C 4.6544 12.9017 4.6497 12.9111 4.6497 12.9158 C 4.645 12.9299 4.64031 12.944 4.64031 12.9581 
        C 4.64031 12.9628 4.64031 12.9628 4.64031 12.9675 C 4.61682 13.0708 4.60743 13.1788 4.57925 13.2822 C 4.57925 13.2869 4.57925 13.2869 4.57925 13.2869 V 13.2916 C 4.57925 13.2963 4.57925 
        13.301 4.57925 13.301 V 13.3104 C 4.55577 13.315 4.52759 13.3197 4.5041 13.3244 C 4.32563 13.3526 4.13306 13.3667 3.94989 13.3479 H 3.9452 C 3.92171 13.3479 3.90293 13.3432 3.87944 
        13.3432 C 3.87475 13.3432 3.87005 13.3432 3.86535 13.3432 C 3.67749 13.3197 3.48962 13.2728 3.31115 13.2023 C 3.22661 13.1695 3.14676 13.1319 3.06692 13.0896 C 3.02465 13.0614 2.98238 13.0379 
        2.94011 13.0192 C 2.91663 13.0051 2.89314 12.991 2.86966 12.9722 C 2.85087 12.9581 2.83209 12.9487 2.818 12.9346 C 2.818 12.9346 2.818 12.9346 2.8133 12.9346 C 2.76633 12.897 2.72406 12.8642 
        2.6771 12.8266 C 1.23991 11.6289 1.78473 9.08335 3.63991 8.67943 C 3.63052 8.66534 3.236 8.76867 3.17964 8.78276 C 3.33463 8.74049 3.48962 8.71231 3.63991 8.67943 C 3.64461 8.68413 2.60195 8.90487 3.63991 
        8.67943 Z M 2.36242 13.7518 C 2.52211 13.8599 2.83678 14.09 3.03404 14.09 C 3.31584 14.1933 3.63052 14.2638 3.93111 14.2779 C 4.0814 14.2873 4.25987 14.3013 4.41017 14.2685 C 4.52289 14.198 4.57925 14.1933 
        4.57925 14.2497 C 4.6544 14.7334 4.83757 15.3205 5.16633 15.6963 C 5.31193 15.8982 5.47631 16.0814 5.66418 16.2458 L 5.66888 16.2505 C 5.19921 16.5417 4.30684 17.3119 4.30684 17.9319 C 4.19882 17.9601 4.0814 
        17.9835 3.96868 17.9929 C 3.95929 17.9929 3.94989 17.9929 3.9405 17.9976 C 1.6861 18.2043 0.629346 15.1139 2.36242 13.7518 C 2.36712 13.7565 2.15107 13.9773 2.11819 13.9538 C 2.11819 13.9538 2.43287 13.7002 
        2.36242 13.7518 C 2.44226 13.8035 1.79882 14.198 2.36242 13.7518 Z M 3.19843 22.7178 
        C 2.01017 22.7178 1.09901 21.7738 0.958114 20.6231 C 0.89236 20.083 0.995687 19.5241 1.28218 19.0591 C 1.3996 18.8665 1.61565 18.5237 1.83639 18.4485 C 2.09471 18.3593 2.57377 18.6974 2.87905 18.8008 
        C 3.21721 18.8994 3.58825 18.9511 3.9405 18.9182 C 4.00156 18.9135 4.05792 18.9088 4.11897 18.9041 C 4.09549 19.3033 4.14715 19.7354 4.28336 20.1111 C 4.33502 20.2755 4.39608 20.454 4.48532 20.5996 C 4.60743 
        20.8391 4.76242 21.0927 4.95498 21.2853 C 5.18982 21.5577 5.218 21.5436 4.98316 21.8442 C 4.84696 22.018 4.69197 22.1683 4.51349 22.2951 C 4.12837 22.5722 3.66809 22.7178 3.19843 22.7178 Z M 9.5859 19.4677 
        C 9.5859 19.4724 9.5859 19.4724 9.5859 19.4677 C 9.29471 21.2477 7.10606 22.0556 5.78629 20.7968 C 5.19451 20.2286 4.84696 19.3925 5.06301 18.58 C 5.26966 17.8145 5.89901 16.9033 6.7585 16.7765 C 7.1859 
        16.6638 8.05009 16.6262 8.39764 16.9738 C 8.39764 16.9738 8.39764 16.9738 8.40234 16.9738 C 9.28531 17.4575 9.74089 18.5565 9.5906 19.4348 C 9.59529 19.3925 9.5953 19.4019 9.5859 19.4677 C 9.5859 19.4724 
        9.60469 19.3409 9.5859 19.4677 Z M 11.3331 19.416 C 11.0607 19.416 10.7882 19.3644 10.5346 19.2657 C 10.544 19.1389 10.5487 18.9933 10.5346 18.8665 C 10.5252 18.7303 10.5064 18.5941 10.483 18.4579 C 10.4783 
        18.4297 10.4736 18.4015 10.4642 18.3734 C 10.4642 18.3734 10.4642 18.3734 10.4642 18.3687 C 10.4595 18.3452 10.4548 18.317 10.4454 18.2935 C 10.4454 18.2888 10.4454 18.2888 10.4454 18.2888 C 10.328 17.8567 
        10.0931 17.1194 9.69392 16.8516 C 9.67514 16.8282 9.65635 16.8094 9.63757 16.7906 C 9.62817 16.7812 9.61878 16.7671 9.60939 16.7577 C 9.46849 16.6074 9.3088 16.4759 9.14441 16.3585 C 9.14441 16.3538 9.14911 
        16.3491 9.14911 16.3444 C 9.15381 16.3303 9.1585 16.3162 9.1632 16.3021 C 9.20547 16.1612 9.27122 16.0109 9.34637 15.8794 C 9.4497 15.6822 9.5859 15.499 9.74559 15.344 C 9.75968 15.3299 9.76907 15.3205 9.78316 
        15.3064 C 9.79725 15.2923 9.80665 15.283 9.82074 15.2736 C 9.83013 15.2642 9.83952 15.2548 9.85361 15.2454 C 9.85831 15.2407 9.86301 15.236 9.8724 15.2313 C 9.88179 15.2219 9.89588 15.2125 9.90528 15.2031 C 10.0039 
        15.1139 10.1213 15.0387 10.2387 14.973 C 10.746 15.2923 11.319 15.452 11.9201 15.452 C 11.9201 15.4567 11.9201 15.4661 11.9201 15.4708 C 11.892 15.9405 11.9577 16.4102 12.1174 16.8516 C 12.2066 17.0959 12.4509 
        17.744 12.7092 17.8755 C 12.7139 17.8849 12.7233 17.8943 12.7327 17.899 C 12.7468 17.9178 12.7609 17.9319 12.7749 17.946 C 12.8689 18.0493 12.9675 18.1479 13.0755 18.2372 C 13.2775 18.3076 13.2916 18.4015 13.1272 
        18.5237 C 13.0567 18.6974 12.7984 18.8712 12.6528 18.9792 C 12.263 19.261 11.8074 19.416 11.3331 19.416 Z M 15.1139 18.0775 C 13.6861 18.0775 12.6387 16.6826 12.8548 15.3111 C 13.2728 15.1796 13.8035 14.9354 14.0806 
        14.5831 C 14.1135 14.5503 14.1464 14.5221 14.1746 14.4892 C 14.1792 14.4845 14.1839 14.4798 14.1886 14.4751 C 14.2309 14.4329 14.2732 14.3859 14.3108 14.3389 C 14.3248 14.3248 14.3342 14.3107 14.3483 14.2967 C 14.353 
        14.292 14.3577 14.2873 14.3624 14.2779 C 14.4329 14.1933 14.5268 14.0806 14.5785 13.982 C 14.6959 13.7988 14.8039 13.6015 14.8791 13.3996 C 14.8837 13.3855 14.8884 13.3761 14.8931 13.362 C 16.2035 13.2352 17.3495 14.3436 
        17.3965 15.6305 C 17.4434 16.8939 16.4149 18.0775 15.1139 18.0775 Z
        M 20.4446 6.74915 C 20.191 6.74915 19.9844 6.5425 19.9844 6.28888 C 19.9844 6.03527 20.191 5.82861 20.4446 5.82861 C 20.6983 5.82861 20.9049 6.03527 20.9049 6.28888 C 20.9049 6.5425 20.6983 6.74915 20.4446 6.74915 Z
        M 23.8027 7.83875 C 23.3894 6.13856 22.1542 4.68729 20.1252 3.51782 C 20.4164 3.07633 21.9241 0.187874 20.8532 0.00939999 C 20.2004 -0.0986235 20.2051 1.03797 20.083 1.43719 C 19.8763 2.11821 19.571 2.77104 19.1296 
        3.33464 C 18.2748 4.45715 16.8517 5.0912 15.4568 5.0912 C 15.0622 5.06772 14.8227 5.56556 15.0857 5.86145 C 15.2689 6.06341 15.5789 6.02114 15.8278 6.00705 C 16.7296 5.95069 17.636 5.66419 18.4063 5.19453 C 17.5186 
        8.49159 19.7025 10.9573 22.3045 12.6247 C 22.3092 12.6294 22.3139 12.6294 22.3186 12.6341 C 22.3937 12.681 22.5018 12.7045 22.591 12.6951 C 22.5957 12.6951 22.6051 12.6951 22.6145 12.6904 C 22.6333 12.6904 22.6474 
        12.6857 22.6661 12.681 C 22.6943 12.6763 22.7225 12.6622 22.7507 12.6528 C 22.7554 12.6528 22.7554 12.6481 22.7601 12.6481 C 22.7648 12.6481 22.7648 12.6435 22.7695 12.6435 C 22.8352 12.6106 22.8916 12.5636 22.9339 
        12.5026 C 22.9339 12.5026 22.9386 12.4979 22.9386 12.4932 C 22.9902 12.4086 24.4086 10.3327 23.8027 7.83875 C 23.3894 6.13856 24.4086 10.3327 23.8027 7.83875 Z M 22.6521 11.0043 C 22.4078 10.22 22.1589 9.43562 21.8912 
        8.65598 C 21.7644 8.28024 21.6047 7.36439 21.1115 7.30803 C 20.3084 7.21879 20.7452 8.17691 20.8767 8.54325 C 21.1773 9.37926 21.4403 10.2341 21.708 11.0795 C 20.6701 10.2763 19.6791 9.26654 19.2845 7.98435 C 18.8994 
        6.74443 19.2094 5.49511 19.6744 4.32564 C 22.1166 5.73464 23.7652 8.13934 22.6521 11.0043 C 22.2669 9.77848 22.6521 11.0043 22.6521 11.0043 Z"/>
    </symbol>

    <symbol id="nut" viewBox="0 0 24 25">
        <path d="M 21.8897 5.77338 C 21.7746 5.60552 21.5396 5.56715 21.3765 5.68225 C 21.2086 5.79736 21.1703 6.03237 21.2854 6.19544 C 22.5707 8.02278 23.2518 10.1235 23.2518 12.277 C 23.2518 15.0635 22.1055 17.759 20.0192 
        19.8741 C 18.446 21.4664 16.4221 22.6559 14.1679 23.3321 C 13.717 22.9676 13.4436 22.2434 13.3189 21.0492 C 13.7794 21.476 14.3933 21.7398 15.0647 21.7398 C 15.8465 21.7398 16.5803 21.3849 17.0647 20.7806 C 17.1271 
        20.7854 17.1894 20.7854 17.2518 20.7854 C 18.6667 20.7854 19.8225 19.6343 19.8225 18.2146 C 19.8225 17.9988 19.7986 17.7926 19.7458 17.5863 C 20.4221 17.3082 21.0216 16.8477 21.4628 16.2626 C 22 15.5528 22.283 14.7038 
        22.283 13.8118 C 22.283 12.9245 21.9952 12.0659 21.4676 11.3609 C 21.9808 10.8813 22.2782 10.205 22.2782 9.48561 C 22.2782 8.22902 21.3861 7.18345 20.187 6.96283 C 20.1583 5.82134 19.3861 4.84772 18.3022 4.55036 C 
        17.9472 3.28417 16.7866 2.39209 15.4532 2.39209 C 14.7962 2.39209 14.1871 2.60791 13.6978 2.97242 C 13.9712 2.32494 14.3453 1.77818 14.7962 1.41847 C 16.9784 2.18106 18.9113 3.43285 20.3933 5.07314 C 20.5324 5.22662 
        20.7626 5.23621 20.9161 5.10192 C 21.0695 4.96763 21.0791 4.73261 20.9448 4.57914 C 18.7242 2.1283 15.5635 0.497602 12.048 0.00359712 C 12.0144 -0.00119904 11.9808 -0.00119904 11.9424 0.00359712 C 8.65228 0.468825 5.63549 
        1.94604 3.44844 4.16187 C 1.22302 6.41607 0 9.29856 0 12.277 C 0 15.2554 1.22302 18.1379 3.44844 20.3921 C 5.63549 22.6079 8.65228 24.0851 11.9472 24.5504 C 11.9664 24.5552 11.9808 24.5552 12 24.5552 C 12.0192 24.5552 
        12.0336 24.5552 12.0528 24.5504 C 15.3429 24.0851 18.3597 22.6079 20.5516 20.3921 C 22.7722 18.1379 24 15.2554 24 12.277 C 23.9904 9.97482 23.2662 7.72542 21.8897 5.77338 Z M 15.4532 3.13549 C 16.518 3.13549 17.4341 
        3.89329 17.6307 4.93405 C 17.6595 5.08273 17.7794 5.20264 17.9281 5.22662 C 18.7722 5.3753 19.3957 6.08034 19.4388 6.93405 C 18.8537 6.99161 18.307 7.2506 17.8849 7.67266 C 17.741 7.81655 17.741 8.05156 17.8849 8.19544 
        C 17.9568 8.26739 18.0528 8.30576 18.1439 8.30576 C 18.2398 8.30576 18.3309 8.26739 18.4029 8.19544 C 18.7482 7.85012 19.2086 7.65827 19.6978 7.65827 C 19.7074 7.65827 19.717 7.65827 19.7218 7.65348 C 19.741 7.65827 19.7554 
        7.65827 19.7746 7.65827 C 20.7578 7.70144 21.5252 8.5024 21.5252 9.48561 C 21.5252 9.99401 21.3141 10.4688 20.9544 10.8141 C 20.211 10.1187 19.2326 9.73501 18.2014 9.73501 C 17.9952 9.73501 17.8321 9.89808 17.8321 10.1043 C 
        17.8321 10.3106 17.9952 10.4736 18.2014 10.4736 C 19.0935 10.4736 19.9329 10.8189 20.5659 11.452 C 20.5851 11.4712 20.6043 11.4856 20.6235 11.5 C 20.6379 11.524 20.6523 11.5432 20.6667 11.5624 C 21.2326 12.1811 21.5396 12.9772 
        21.5396 13.8165 C 21.5396 14.5456 21.3094 15.241 20.8681 15.8261 C 20.5036 16.3058 20.0096 16.6847 19.458 16.9101 C 18.9976 16.1379 18.1679 15.6535 17.247 15.6535 C 16.5612 15.6535 15.9137 15.9221 15.4293 16.4065 C 15.2854 16.5504 
        15.2854 16.7854 15.4293 16.9293 C 15.5731 17.0731 15.8082 17.0731 15.952 16.9293 C 16.2974 16.5839 16.7578 16.3921 17.247 16.3921 C 17.9856 16.3921 18.6475 16.8285 18.9353 17.5096 C 19.0312 17.735 19.0791 17.9748 19.0791 18.2194 C 
        19.0791 19.1499 18.3837 19.9173 17.482 20.0324 C 17.5779 19.759 17.6307 19.4664 17.6307 19.1691 C 17.6307 18.9628 17.4676 18.7998 17.2614 18.7998 C 17.0552 18.7998 16.8921 18.9628 16.8921 19.1691 C 16.8921 19.5336 16.7866 19.8837 
        16.5851 20.1811 C 16.2446 20.6894 15.6739 20.9964 15.0647 20.9964 C 14.0576 20.9964 13.2326 20.1763 13.2326 19.1643 C 13.2326 18.6559 13.4388 18.1811 13.8082 17.8309 C 13.9472 17.7014 13.9616 17.4856 13.8465 17.3369 C 13.4436 
        16.8237 13.2326 16.205 13.2326 15.5528 C 13.2326 14.6511 13.6403 13.8165 14.3501 13.2602 C 14.3549 13.2554 14.3549 13.2554 14.3597 13.2506 C 14.8729 12.8525 15.4868 12.6415 16.1391 12.6415 C 16.3453 12.6415 16.5084 12.4784 16.5084 
        12.2722 C 16.5084 12.0659 16.3453 11.9029 16.1391 11.9029 C 15.4245 11.9029 14.7482 12.1043 14.1583 12.488 C 13.5731 11.8597 13.2374 11.0204 13.2374 10.1475 C 13.2374 9.23621 13.5923 8.38249 14.2302 7.73501 C 14.2302 7.73501 14.2302 
        7.73022 14.235 7.73022 C 14.8825 7.07794 15.7506 6.71343 16.6715 6.71343 C 16.8777 6.71343 17.0408 6.55036 17.0408 6.34413 C 17.0408 6.13789 16.8777 5.97482 16.6715 5.97482 C 15.6595 5.97482 14.7098 6.32974 13.952 6.98201 C 13.5012 
        6.56475 13.2374 5.97482 13.2374 5.35132 C 13.2374 4.13309 14.2302 3.13549 15.4532 3.13549 Z M 0.738609 12.277 C 0.738609 9.49041 1.88489 6.79496 3.97122 4.67986 C 5.39568 3.23621 7.19424 2.1235 9.19424 1.42326 C 9.64508 1.78297 10.024 
        2.32494 10.2926 2.97242 C 9.80336 2.61271 9.19424 2.39688 8.53717 2.39688 C 7.20384 2.39688 6.04317 3.28897 5.68825 4.55516 C 4.60432 4.85252 3.83213 5.82614 3.80336 6.96763 C 2.60432 7.19305 1.71223 8.23861 1.71223 9.49041 C 1.71223 
        10.205 2.00959 10.8813 2.52278 11.3657 C 1.9952 12.0707 1.70743 12.9245 1.70743 13.8165 C 1.70743 13.9029 1.71223 13.994 1.71703 14.0803 C 1.73141 14.2818 1.90887 14.44 2.11031 14.4257 C 2.31175 14.4113 2.47002 14.2386 2.45564 14.0324 
        C 2.45084 13.9604 2.45084 13.8885 2.45084 13.8165 C 2.45084 12.982 2.76259 12.1811 3.32374 11.5624 C 3.34293 11.5432 3.35731 11.524 3.36691 11.5 C 3.38609 11.4856 3.40528 11.4712 3.42446 11.452 C 4.05755 10.8189 4.89688 10.4736 5.78897 
        10.4736 C 5.9952 10.4736 6.15827 10.3106 6.15827 10.1043 C 6.15827 9.89808 5.9952 9.73501 5.78897 9.73501 C 4.753 9.73501 3.77938 10.1187 3.02158 10.8189 C 2.66187 10.4784 2.45084 9.9988 2.45084 9.49041 C 2.45084 8.50719 3.21823 7.70624 
        4.20144 7.66307 C 4.22062 7.66307 4.23501 7.65827 4.2542 7.65827 C 4.26379 7.66307 4.27338 7.66307 4.27818 7.66307 C 4.76739 7.66307 5.22782 7.85492 5.57314 8.20024 C 5.64508 8.27218 5.74101 8.31055 5.83213 8.31055 C 5.92806 8.31055 
        6.01918 8.27218 6.09113 8.20024 C 6.23501 8.05636 6.23501 7.82134 6.09113 7.67746 C 5.66906 7.2554 5.1223 6.9964 4.53717 6.93885 C 4.58034 6.08993 5.20384 5.3801 6.04796 5.23141 C 6.20144 5.20743 6.31655 5.08753 6.34532 4.93885 C 6.54676 
        3.89808 7.46283 3.14029 8.52278 3.14029 C 9.7458 3.14029 10.7434 4.13789 10.7434 5.36091 C 10.7434 5.98441 10.4796 6.56954 10.0288 6.99161 C 9.27098 6.33933 8.32134 5.98441 7.30935 5.98441 C 7.10312 5.98441 6.94005 6.14748 6.94005 6.35372 C 
        6.94005 6.55995 7.10312 6.72302 7.30935 6.72302 C 8.23022 6.72302 9.09832 7.08273 9.7458 7.73981 C 9.7458 7.73981 9.7458 7.7446 9.7506 7.7446 C 10.3933 8.39209 10.7434 9.2506 10.7434 10.1571 C 10.7434 11.03 10.4077 11.8693 9.81295 12.5024 
        C 9.22302 12.1187 8.54676 11.9173 7.83213 11.9173 C 7.6259 11.9173 7.46283 12.0803 7.46283 12.2866 C 7.46283 12.4928 7.6259 12.6559 7.83213 12.6559 C 8.48441 12.6559 9.09832 12.8669 9.61151 13.265 C 9.61631 13.2698 9.61631 13.2698 9.6211 
        13.2746 C 10.3309 13.8309 10.7386 14.6655 10.7386 15.5671 C 10.7386 16.2194 10.5276 16.8381 10.1247 17.3513 C 10.0096 17.5 10.024 17.7158 10.1631 17.8453 C 10.5324 18.1954 10.7386 18.6703 10.7386 19.1787 C 10.7386 20.1859 9.91846 21.0108 
        8.90647 21.0108 C 8.29257 21.0108 7.72662 20.7038 7.38609 20.1954 C 7.18465 19.8933 7.07914 19.5432 7.07914 19.1835 C 7.07914 18.9772 6.91607 18.8141 6.70983 18.8141 C 6.5036 18.8141 6.34053 18.9772 6.34053 19.1835 C 6.34053 19.4808 
        6.39329 19.7734 6.48921 20.0468 C 5.59233 19.9317 4.89209 19.1643 4.89209 18.2338 C 4.89209 17.9892 4.94005 17.7494 5.03597 17.524 C 5.32374 16.8429 5.98561 16.4065 6.72422 16.4065 C 7.21343 16.4065 7.67386 16.5983 8.01918 16.9436 C 8.16307 
        17.0875 8.39808 17.0875 8.54197 16.9436 C 8.68585 16.7998 8.68585 16.5647 8.54197 16.4209 C 8.05755 15.9365 7.41007 15.6679 6.72422 15.6679 C 5.80815 15.6679 4.97362 16.1523 4.51319 16.9245 C 3.7554 16.6127 3.1271 16.0324 2.76259 15.2842 C 
        2.67146 15.1019 2.45084 15.0252 2.26858 15.1115 C 2.08633 15.2026 2.00959 15.4233 2.09592 15.6055 C 2.53717 16.512 3.29976 17.2266 4.22542 17.6055 C 4.17266 17.8118 4.14868 18.018 4.14868 18.2338 C 4.14868 19.6487 5.29976 20.8046 6.71942 
        20.8046 C 6.78177 20.8046 6.84412 20.8046 6.90647 20.7998 C 7.39089 21.4041 8.1247 21.759 8.90647 21.759 C 9.58273 21.759 10.1966 21.4952 10.6523 21.0683 C 10.5276 22.2626 10.2542 22.982 9.80336 23.3513 C 7.54916 22.6751 5.52518 21.4856 
        3.95204 19.8933 C 1.88969 17.759 0.738609 15.0635 0.738609 12.277 Z M 11.9952 23.8118 C 11.5348 23.7446 11.0839 23.6583 10.6379 23.5528 C 11.2422 22.7758 11.4964 21.4233 11.4964 19.1691 C 11.4964 18.5743 11.2854 17.994 10.9113 17.5384 C 
        11.295 16.9484 11.4964 16.2674 11.4964 15.5576 C 11.4964 14.5695 11.1031 13.6391 10.4077 12.958 C 11.1031 12.1954 11.4964 11.1882 11.4964 10.1475 C 11.4964 9.17866 11.1655 8.25779 10.5612 7.51439 C 11.1511 6.95803 11.4964 6.17626 11.4964 
        5.35611 C 11.4964 4.42566 11.3141 3.5048 10.9736 2.68465 C 10.7194 2.08034 10.3933 1.56715 10.0096 1.16906 C 10.6571 0.982014 11.3237 0.842926 12 0.742206 C 12.6811 0.842926 13.3429 0.982014 13.9904 1.16906 C 13.6067 1.56715 13.2758 2.08513 
        13.0264 2.68465 C 12.6859 3.5048 12.5036 4.42566 12.5036 5.35611 C 12.5036 6.17626 12.8489 6.95803 13.4388 7.51439 C 12.8345 8.25779 12.5036 9.17866 12.5036 10.1475 C 12.5036 11.1882 12.8969 12.1954 13.5923 12.958 C 12.8969 13.6391 12.5036 
        14.5695 12.5036 15.5576 C 12.5036 16.2722 12.705 16.9484 13.0887 17.5384 C 12.7146 17.994 12.5036 18.5743 12.5036 19.1691 C 12.5036 21.4185 12.7578 22.771 13.3621 23.5528 C 12.9065 23.6583 12.4556 23.7446 11.9952 23.8118 Z"/>
    </symbol>

    <symbol id="almond" viewBox="0 0 24 24">
        <path d="M11.268 19.194C11.0196 19.119 10.7571 19.2597 10.6868 19.5081C10.0634 21.5986 8.09948 23.061 5.91524 23.061C3.16855 23.0563 
        0.937439 20.8252 0.937439 18.0832C0.937439 14.4037 2.23111 10.818 4.58408 7.98695L5.37621 7.03545C5.50746 6.87608 5.70432 6.78234 
        5.91056 6.78234C6.11679 6.78234 6.31365 6.87608 6.4449 7.03545L7.23703 7.98695C9.03223 10.1477 10.2228 12.7538 10.6774 15.524C10.7196 
        15.7771 10.9587 15.9505 11.2165 15.9083C11.4696 15.8661 11.643 15.6271 11.6008 15.3693C11.118 12.4351 9.85718 9.67434 7.95886 
        7.38699L7.17141 6.4308C6.86206 6.05582 6.40271 5.84021 5.91524 5.84021C5.42777 5.84021 4.96843 6.05582 4.65907 6.4308L3.86694 7.3823C1.37335 
        10.3821 0 14.1834 0 18.0832C0 21.3455 2.65295 23.9984 5.91524 23.9984C7.2136 23.9984 8.44633 23.5859 9.4822 22.8032C10.4806 22.0485 11.2305 
        20.9705 11.5868 19.7799C11.6571 19.5268 11.5164 19.2643 11.268 19.194Z
        M5.69025 11.8539C5.46058 11.9758 5.37621 12.2617 5.49808 12.4867C6.27146 13.9257 6.74487 15.5474 6.87143 17.1739C6.89017 17.4176 7.09641 17.6051 
        7.34015 17.6051C7.35421 17.6051 7.36358 17.6051 7.37764 17.6051C7.63544 17.5864 7.82761 17.3614 7.80886 17.1036C7.67294 15.3224 7.17141 13.621 
        6.32771 12.0461C6.20584 11.8164 5.91992 11.732 5.69025 11.8539Z
        M5.91524 20.0144C6.17304 20.0144 6.38396 19.8035 6.38396 19.5457C6.38396 19.2879 6.17304 19.077 5.91524 19.077C5.36684 19.077 4.91687 18.6317 4.91687 
        18.0786C4.91687 17.4927 4.95906 16.9021 5.04811 16.3256C5.08561 16.0678 4.91218 15.8287 4.65439 15.7912C4.39659 15.7537 4.15754 15.9272 4.12005 
        16.1849C4.0263 16.8083 3.97943 17.4458 3.97943 18.0786C3.97943 19.1473 4.84656 20.0144 5.91524 20.0144Z
        M5.91525 22.0064C8.08074 22.0064 9.83844 20.244 9.83844 18.0832C9.83844 17.8254 9.62751 17.6145 9.36972 17.6145C9.11192 17.6145 8.901 17.8254 8.901 
        18.0832C8.901 19.7284 7.56046 21.069 5.91525 21.069C5.65746 21.069 5.44653 21.2799 5.44653 21.5377C5.44653 21.7955 5.65746 22.0064 5.91525 22.0064Z
        M8.97128 15.2053C9.00878 15.2053 9.04628 15.2006 9.08377 15.1912C9.33688 15.1303 9.49156 14.8772 9.43063 14.6241C9.10721 13.2835 8.59631 11.9946 
        7.91666 10.7946C7.79011 10.5697 7.50419 10.49 7.2792 10.6165C7.05422 10.7431 6.97454 11.029 7.10109 11.254C7.73855 12.3789 8.21664 13.5835 8.52131 
        14.8397C8.56818 15.06 8.76036 15.2053 8.97128 15.2053Z
        M4.11068 11.4039C3.87632 11.2914 3.59977 11.3851 3.48259 11.6195C2.50766 13.6256 1.99207 15.8567 1.99207 18.0785C1.99207 18.3363 2.20299 18.5472 2.46079 
        18.5472C2.71858 18.5472 2.9295 18.3363 2.9295 18.0785C2.9295 15.9973 3.41229 13.9069 4.32629 12.032C4.43878 11.7976 4.34035 11.5211 4.11068 11.4039Z
        M23.9938 13.2601L23.8813 12.0273C23.525 8.14635 21.8095 4.49033 19.0534 1.72958C16.7473 -0.576525 12.9976 -0.576525 10.6915 1.72958C8.38539 4.03568 8.38539 
        7.78543 10.6915 10.0915C13.4476 12.8476 17.1036 14.5631 20.9893 14.924L22.222 15.0365C22.2736 15.0412 22.3251 15.0412 22.372 15.0412C22.8032 15.0412 23.2157 
        14.8725 23.525 14.5631C23.8625 14.221 24.0359 13.7429 23.9938 13.2601ZM22.8548 13.9022C22.7095 14.0475 22.5032 14.1225 22.297 14.1038L21.0643 13.9913C17.3989 
        13.6538 13.9491 12.032 11.3477 9.43064C9.4072 7.49014 9.4072 4.33097 11.3477 2.39047C12.2898 1.44834 13.5366 0.932752 14.8678 0.932752C16.1989 0.932752 17.4457 
        1.44834 18.3879 2.39047C20.9893 4.99187 22.611 8.44633 22.9485 12.107L23.061 13.3398C23.0751 13.5507 23.0048 13.7569 22.8548 13.9022Z
        M14.8631 4.91686C15.1303 4.91686 15.3787 5.01998 15.5662 5.20746C15.9787 5.61994 16.3677 6.06991 16.7146 6.53863C16.8083 6.66518 16.9489 6.7308 17.0942 
        6.7308C17.1927 6.7308 17.2864 6.70268 17.3708 6.63706C17.577 6.48238 17.6239 6.19178 17.4692 5.98085C17.0942 5.46995 16.6771 4.98717 16.2318 4.54188C15.8662 4.17628 
        15.3834 3.97473 14.8631 3.97473C14.3475 3.97473 13.8601 4.17628 13.4945 4.54188C13.3117 4.72468 13.3117 5.01998 13.4945 5.20278C13.6773 5.38558 13.9726 5.38558 14.1554 
        5.20278C14.3475 5.01998 14.6006 4.91686 14.8631 4.91686Z
        M19.1144 9.57599C17.5489 9.10258 16.0677 8.2917 14.8256 7.23239C14.6287 7.06365 14.3334 7.08709 14.1647 7.28395C13.996 7.48081 14.0194 7.7761 14.2163 7.94484C15.5709 
        9.10727 17.127 9.95565 18.8425 10.4759C18.8894 10.49 18.9316 10.4947 18.9785 10.4947C19.18 10.4947 19.3675 10.3634 19.4284 10.1619C19.4987 9.90878 19.3581 9.65098 
        19.1144 9.57599Z
        M17.6379 3.13576C17.4551 2.95296 17.1598 2.95296 16.977 3.13576C16.7942 3.31856 16.7942 3.61385 16.977 3.79665C18.4488 5.26843 19.5831 7.08706 20.2674 9.06037C20.333 
        9.25255 20.5158 9.37442 20.7127 9.37442C20.7643 9.37442 20.8158 9.36504 20.8674 9.34629C21.1111 9.26192 21.2424 8.99475 21.158 8.75102C20.4268 6.65116 19.2128 4.70597 
        17.6379 3.13576Z
        M18.8566 11.5726C17.6098 11.2305 16.4193 10.7149 15.3178 10.0399C15.0975 9.90401 14.8069 9.97431 14.6756 10.1946C14.5397 10.4149 14.61 10.7055 14.8303 10.8368C16.0068 
        11.5586 17.2817 12.107 18.6082 12.4726C18.6504 12.482 18.6925 12.4913 18.7347 12.4913C18.941 12.4913 19.1285 12.3554 19.1847 12.1492C19.2503 11.8961 19.105 11.6383 18.8566 11.5726Z
        M12.7539 3.13576C12.5711 2.95296 12.2758 2.95296 12.093 3.13576C10.565 4.66378 10.565 7.15737 12.093 8.6854C12.1867 8.77914 12.3039 8.82133 12.4258 8.82133C12.5476 8.82133 
        12.6648 8.77446 12.7586 8.6854C12.9414 8.5026 12.9414 8.2073 12.7586 8.0245C11.5961 6.86208 11.5961 4.96376 12.7586 3.80134C12.9367 3.61854 12.9367 3.31856 12.7539 3.13576Z
        M11.3524 17.0754C11.2305 17.0754 11.1087 17.127 11.0196 17.2114C10.9305 17.3004 10.8837 17.4176 10.8837 17.5442C10.8837 17.666 10.9352 17.7879 11.0196 17.877C11.1087 17.966 
        11.2258 18.0129 11.3524 18.0129C11.4789 18.0129 11.5961 17.9613 11.6852 17.877C11.7742 17.7879 11.8211 17.6707 11.8211 17.5442C11.8211 17.4176 11.7695 17.3004 11.6852 
        17.2114C11.5961 17.1223 11.4743 17.0754 11.3524 17.0754Z"/>
    </symbol>

    <symbol id="milk" viewBox="0 0 32 20">
        <path d="M8.48126 5.44995C8.74015 5.44995 8.95001 5.24009 8.95001 4.9812C8.95001 4.72232 8.74015 4.51245 8.48126 4.51245C8.22238 4.51245 8.01251 
        4.72232 8.01251 4.9812C8.01251 5.24009 8.22238 5.44995 8.48126 5.44995Z
        M11.4875 5.44995C11.7464 5.44995 11.9562 5.24009 11.9562 4.9812C11.9562 4.72232 11.7464 4.51245 11.4875 4.51245C11.2286 4.51245 11.0187 4.72232 
        11.0187 4.9812C11.0187 5.24009 11.2286 5.44995 11.4875 5.44995Z
        M9.98126 7.4187C10.2401 7.4187 10.45 7.20884 10.45 6.94995C10.45 6.69107 10.2401 6.4812 9.98126 6.4812C9.72238 6.4812 9.51251 6.69107 9.51251 
        6.94995C9.51251 7.20884 9.72238 7.4187 9.98126 7.4187Z
        M12.9875 7.4187C13.2464 7.4187 13.4562 7.20884 13.4562 6.94995C13.4562 6.69107 13.2464 6.4812 12.9875 6.4812C12.7286 6.4812 12.5187 6.69107 
        12.5187 6.94995C12.5187 7.20884 12.7286 7.4187 12.9875 7.4187Z
        M3.9375 7.4187C4.19638 7.4187 4.40625 7.20884 4.40625 6.94995C4.40625 6.69107 4.19638 6.4812 3.9375 6.4812C3.67862 6.4812 3.46875 6.69107 
        3.46875 6.94995C3.46875 7.20884 3.67862 7.4187 3.9375 7.4187Z
        M6.97498 7.4187C7.23386 7.4187 7.44373 7.20884 7.44373 6.94995C7.44373 6.69107 7.23386 6.4812 6.97498 6.4812C6.71609 6.4812 6.50623 6.69107 
        6.50623 6.94995C6.50623 7.20884 6.71609 7.4187 6.97498 7.4187Z
        M9.98126 3.47498C10.2401 3.47498 10.45 3.26511 10.45 3.00623C10.45 2.74734 10.2401 2.53748 9.98126 2.53748C9.72238 2.53748 9.51251 2.74734 
        9.51251 3.00623C9.51251 3.26511 9.72238 3.47498 9.98126 3.47498Z
        M6.97498 3.47498C7.23386 3.47498 7.44373 3.26511 7.44373 3.00623C7.44373 2.74734 7.23386 2.53748 6.97498 2.53748C6.71609 2.53748 6.50623 
        2.74734 6.50623 3.00623C6.50623 3.26511 6.71609 3.47498 6.97498 3.47498Z
        M5.50623 5.44995C5.76511 5.44995 5.97497 5.24009 5.97497 4.9812C5.97497 4.72232 5.76511 4.51245 5.50623 4.51245C5.24734 4.51245 5.03748 
        4.72232 5.03748 4.9812C5.03748 5.24009 5.24734 5.44995 5.50623 5.44995Z
        M30.525 8.01875H26.0563C25.7938 8.01875 25.5875 8.23125 25.5875 8.4875C25.5875 8.75 25.8 8.95625 26.0563 8.95625H30.525C30.8188 8.95625 
        31.0563 9.19375 31.0563 9.4875V9.64375C31.0563 9.90625 30.8688 10.125 30.6125 10.1687L16.4188 12.5312C16.1938 12.5688 16.025 12.7625 16.025 
        12.9937V15.5C16.025 17.45 14.4375 19.0375 12.4875 19.0375H4.46875C2.51875 19.0375 0.93125 17.45 0.93125 15.5V8.95625H23.7438C24.0063 8.95625 
        24.2125 8.74375 24.2125 8.4875C24.2125 8.225 24 8.01875 23.7438 8.01875H16.8063C16.5375 7.375 15.8375 5.80625 14.7438 4.2125C12.8563 1.45625 
        10.6875 0 8.48125 0C6.275 0 4.1 1.45625 2.20625 4.2125C0.8125 6.2375 0.05625 8.2375 0.025 8.31875V8.325C0.01875 8.3375 0.01875 8.35 0.0125 
        8.3625C0.0125 8.36875 0.0125 8.36875 0.00625 8.375C0 8.3875 0 8.4 0 8.41875C0 8.425 0 8.425 0 8.43125C0 8.45 0 8.46875 0 8.48125V15.5C0 17.9688 
        2.00625 19.975 4.475 19.975H12.4938C14.9625 19.975 16.9688 17.9688 16.9688 15.5V13.3938L30.7688 11.0938C31.4813 10.975 32 10.3625 32 9.64375V9.4875C31.9938 
        8.675 31.3313 8.01875 30.525 8.01875ZM8.48125 0.9375C12.3125 0.9375 14.9688 6.16875 15.7938 8.0125H1.16875C1.9875 6.16875 4.64375 0.9375 8.48125 0.9375Z"/>
    </symbol>

    <symbol id="bee" viewBox="0 0 24 25">
        <path d="M0.18761 21.5505C3.66777 23.7268 3.43795 23.6142 3.60211 23.6142C3.76627 23.6142 3.5599 23.708 6.80555 21.6865C10.0559 23.7174 9.84952 23.6142 10.009 
        23.6142C10.1685 23.6142 10.009 23.6846 12.6261 22.0477C12.8138 21.9304 12.87 21.6818 12.7528 21.4942C12.6355 21.3066 12.3869 21.2503 12.1993 21.3676L10.0043 
        22.7418L7.20422 20.9924V18.2345L8.66758 17.3199C8.85519 17.2027 8.91147 16.9541 8.79422 16.7665C8.67696 16.5789 8.42838 16.5226 8.24077 16.6398L6.80555 
        17.5404L4.00547 15.7909V13.033L6.80555 11.2836C8.3674 12.2591 8.26422 12.2122 8.37678 12.231C8.56439 12.2638 8.752 12.1653 8.82236 11.9871C8.89271 11.8089 
        8.82705 11.6072 8.66758 11.504L7.20422 10.5894V7.83154L10.0043 6.08208L12.8044 7.83154V8.40844C12.8044 8.62888 12.9826 8.80711 13.203 8.80711C13.4235 8.80711 
        13.6017 8.62888 13.6017 8.40844V7.83154L16.4018 6.08208L19.2019 7.83154V10.8098C19.2019 11.0303 19.3801 11.2085 19.6005 11.2085C19.821 11.2085 19.9992 11.0303 
        19.9992 10.8098V7.60641C19.9992 7.47039 19.9289 7.33907 19.8116 7.26871L16.7958 5.38323V2.40023C16.7958 2.26422 16.7254 2.13289 16.6082 2.06254L13.4188 
        0.0598007C13.2875 -0.0199336 13.1233 -0.0199336 12.9967 0.0598007L10.009 1.92652L7.01661 0.0598007C6.88528 -0.0199336 6.72113 -0.0199336 6.59449 0.0598007L3.39105 
        2.06254C3.27379 2.13758 3.20344 2.26422 3.20344 2.40023V5.37854L0.18761 7.26402C0.0703537 7.33907 0 7.4657 0 7.60172V10.8052C0 10.9412 0.0703537 11.0725 0.18761 
        11.1429L3.20344 13.0283V15.7862L0.18761 17.6717C0.0703537 17.7467 0 17.8734 0 18.0094V21.2128C0 21.3488 0.0703537 21.4755 0.18761 21.5505ZM13.2077 0.871214L16.0078 
        2.62068V5.37854L13.2077 7.12801L10.4077 5.37854V2.62068L13.2077 0.871214ZM6.80555 0.871214L9.60563 2.62068V5.37854L6.80555 7.12801L4.00547 5.37854V2.62068L6.80555 
        0.871214ZM0.802032 7.82685L3.60211 6.07739L6.40219 7.82685V10.5847L3.60211 12.3342L0.802032 10.5847V7.82685ZM0.802032 18.2298L3.60211 16.4804L6.40219 18.2298V20.9877L3.60211 
        22.7372L0.802032 20.9877V18.2298Z
        M18.4092 12.0105V11.6072C18.4092 10.9083 18.0997 10.2423 17.5697 9.78265L17.9684 8.98062C18.0668 8.78363 17.9824 8.54443 17.7854 8.44593C17.5884 8.34744 17.3492 8.42717 
        17.2507 8.62416L16.8802 9.36991C16.3221 9.14947 15.6983 9.14947 15.1354 9.36991L14.7649 8.62416C14.7039 8.49283 14.5726 8.40841 14.4319 8.39903C14.2865 8.38965 14.1505 
        8.46 14.0708 8.57726C13.991 8.6992 13.9816 8.84929 14.0473 8.98062L14.446 9.78265C13.9113 10.2376 13.6017 10.9036 13.6017 11.6072V12.0105C13.2359 12.0058 12.8419 12.0058 
        12.401 12.0058C10.2763 12.0058 7.99689 12.972 7.99689 14.4072C7.99689 16.1332 11.2472 17.0385 12.8654 16.7664C12.8278 17.0854 12.7997 17.5216 12.7997 17.8124C12.7997 
        20.6124 14.0004 22.8497 15.5998 23.1733V23.6189C15.5998 23.8393 15.778 24.0176 15.9985 24.0176C16.2189 24.0176 16.3971 23.8393 16.3971 23.6189V23.1686C17.9965 22.845 
        19.1972 20.6077 19.1972 17.8077C19.1972 17.5216 19.1691 17.0807 19.1315 16.7664C20.7684 17.0385 24 16.1239 24 14.4072C24 12.972 21.7252 12.0058 19.5959 12.0058C19.1925 
        12.0058 18.7845 12.0058 18.4092 12.0105ZM14.4085 11.6072C14.4085 10.7207 15.1261 10.0078 16.0078 10.0078C16.8943 10.0078 17.6072 10.7254 17.6072 11.6072V12.0293C17.0678 
        12.0199 16.5238 12.0996 16.0078 12.2591C15.4919 12.0903 14.9478 12.0152 14.4038 12.0293V11.6072H14.4085ZM16.0125 14.1587C16.2001 14.5339 16.43 14.8856 16.702 15.2046H15.3184C15.5857 
        14.8856 15.8202 14.5339 16.0125 14.1587ZM8.80361 14.4072C8.80361 13.6849 10.464 12.8079 12.4057 12.8079C13.2078 12.8079 15.0979 12.7938 15.5951 12.9533C15.4591 13.9148 14.0614 16.0113 
        12.4057 16.0113C10.4686 16.0066 8.80361 15.1295 8.80361 14.4072ZM14.4929 16.0066H17.5181C17.762 16.1989 18.0246 16.3631 18.3014 16.4991C18.3154 16.6023 18.3295 16.7055 18.3436 
        16.8086H15.6092C15.3887 16.8086 15.2105 16.9869 15.2105 17.2073C15.2105 17.4278 15.3887 17.606 15.6092 17.606H18.3999C18.4186 17.8733 18.4139 18.1407 18.3858 18.408H13.6299C13.6017 
        18.1407 13.597 17.8733 13.6158 17.606H14.0051C14.2255 17.606 14.4038 17.4278 14.4038 17.2073C14.4038 16.9869 14.2255 16.8086 14.0051 16.8086H13.6721C13.6862 16.7008 13.7002 16.5976 
        13.7143 16.4897C13.9957 16.3584 14.2537 16.1989 14.4929 16.0066ZM14.2068 20.8094H16.0078C16.2283 20.8094 16.4065 20.6312 16.4065 20.4108C16.4065 20.1903 16.2283 20.0121 16.0078 
        20.0121H13.9113C13.8362 19.7494 13.7753 19.4821 13.7284 19.21H18.292C18.2451 19.4821 18.1841 19.7494 18.1091 20.0121H17.6119C17.3915 20.0121 17.2132 20.1903 17.2132 20.4108C17.2132 
        20.6312 17.3915 20.8094 17.6119 20.8094H17.8136C16.838 22.9435 15.1823 22.9435 14.2068 20.8094ZM23.2121 14.4072C23.2121 15.4016 20.2384 16.4053 18.8126 15.8518C17.6213 15.289 16.7442 14.229 
        16.4206 12.9533C16.9975 12.7797 18.7282 12.8079 19.6099 12.8032C21.5517 12.8079 23.2121 13.6849 23.2121 14.4072Z"/>
    </symbol>

    <symbol id="cacao" viewBox="0 0 24 19">
        <path d="M23.6531 9.80156C23.2687 8.74688 22.6031 7.84219 21.7265 7.18594C21.1031 6.72188 20.3953 6.40313 19.6312 6.23906C19.7953 4.73438 19.3265 3.17344 18.3468 1.9875C17.2875 0.707813 
        15.764 0 14.0578 0H13.7812C12.5859 0 11.4281 0.421875 10.4297 1.22344C10.2562 1.35938 10.05 1.43438 9.82966 1.43438C9.60935 1.43438 9.4031 1.35938 9.22966 1.22344C8.23591 0.421875 7.0781 
        0 5.88279 0H5.60623C4.37342 0 3.22029 0.375 2.27342 1.07813C1.39217 1.73438 0.726543 2.63438 0.346856 3.69375C-0.0328314 4.74375 -0.103144 5.85938 0.154668 6.91875C0.426543 8.0625 1.06873 
        9.07969 2.01092 9.86719C2.7281 10.4672 3.5156 10.9828 4.34998 11.4C4.31717 11.9484 4.36404 12.4922 4.4906 13.0266C4.76248 14.1703 5.40467 15.1875 6.34685 15.975C8.53591 17.8031 11.3156 
        18.8063 14.1703 18.8063C17.025 18.8063 19.8047 17.7984 21.9937 15.975C22.9359 15.1875 23.5781 14.1703 23.85 13.0266C24.1031 11.9672 24.0375 10.8516 23.6531 9.80156ZM4.49998 10.4016C3.83435 
        10.0453 3.20623 9.61875 2.62029 9.13125C0.792168 7.60781 0.712481 5.48906 1.24217 4.01719C1.77654 2.53594 3.20623 0.95625 5.60154 0.95625H5.8781C6.8531 0.95625 7.80466 1.30781 8.62966 1.96875C8.96716 
        2.24063 9.39373 2.39063 9.82498 2.39063C10.2562 2.39063 10.6828 2.24063 11.0203 1.96875C11.8453 1.30313 12.7968 0.95625 13.7718 0.95625H14.0484C15.464 0.95625 16.725 1.5375 17.6015 2.59688C18.4172 3.58125 
        18.8015 4.87031 18.675 6.1125C18.5812 6.10781 18.4828 6.10313 18.3843 6.10313H18.1078C16.9125 6.10313 15.7547 6.525 14.7562 7.32656C14.5828 7.4625 14.3765 7.5375 14.1562 7.5375C13.9359 7.5375 13.7297 7.4625 
        13.5562 7.32656C12.5578 6.525 11.4 6.10313 10.2047 6.10313H9.9281C8.69529 6.10313 7.54685 6.47813 6.59529 7.18125C5.71404 7.8375 5.04842 8.7375 4.66873 9.79688C4.60779 9.99844 4.54685 10.2 4.49998 10.4016ZM21.3797 
        15.2391C19.364 16.9219 16.8 17.85 14.1703 17.85C11.5406 17.85 8.97185 16.9219 6.95623 15.2391C5.1281 13.7156 5.04842 11.5969 5.5781 10.125C6.11248 8.64375 7.54216 7.06406 9.93748 7.06406H10.214C11.189 7.06406 
        12.1406 7.41563 12.9656 8.07656C13.3031 8.34844 13.7297 8.49844 14.1609 8.49844C14.5922 8.49844 15.0187 8.34844 15.3562 8.07656C16.1812 7.41094 17.1328 7.06406 18.1078 7.06406H18.3843C20.7797 7.06406 22.2093 
        8.64844 22.7437 10.125C23.2875 11.5969 23.2078 13.7156 21.3797 15.2391Z"/>
</svg>